<?xml version="1.0" standalone="no"?>
<!DOCTYPE svg PUBLIC "-//W3C//DTD SVG 1.0//EN" "http://www.w3.org/TR/2001/REC-SVG-20010904/DTD/svg10.dtd">
<svg xmlns="http://www.w3.org/2000/svg" xmlns:xlink="http://www.w3.org/1999/xlink" id="body_1" width="256" height="192">

<g transform="matrix(3.9183674 0 0 3.9183674 32.000008 -0)">
	<g>
	</g>
    <path d="M24.5 0.4C 11.196 0.4 0.4 11.196 0.4 24.5C 0.4 37.805 11.195999 48.6 24.5 48.6C 37.805 48.6 48.6 37.805 48.6 24.499998C 48.572 11.196 37.805 0.4 24.5 0.4z" stroke="none" fill="#E30918" fill-rule="nonzero" />
	<g>
	</g>
    <path d="M1.246 24.5C 1.246 18.890999 3.247 13.732 6.545 9.702C 10.801001 4.5439997 17.256 1.2459993 24.472 1.2459993C 37.326 1.2459993 47.753998 11.645999 47.753998 24.5C 47.753998 37.325 37.325996 47.753998 24.499998 47.753998C 11.646 47.754 1.246 37.325 1.246 24.5zM1.584 24.5C 1.584 30.814 4.149 36.564 8.292 40.707C 12.436 44.852 18.157 47.416 24.5 47.416C 30.814 47.416 36.564 44.852 40.707 40.707C 44.852 36.564 47.416 30.842001 47.416 24.5C 47.416 18.187 44.852 12.437 40.707 8.292999C 36.564 4.149 30.842 1.584 24.5 1.584C 17.397 1.584 11.026 4.825 6.8269997 9.9279995C 3.557 13.874 1.584 18.947 1.584 24.5z" stroke="none" fill="#FFFFFF" fill-rule="nonzero" />
    <path d="M7.474 33.942C 7.4740005 33.786533 7.419034 33.65383 7.309101 33.5439C 7.1991687 33.433968 7.0664682 33.379 6.911 33.379C 6.755532 33.379 6.6228313 33.433968 6.5128984 33.5439C 6.402966 33.65383 6.3479996 33.786533 6.3479996 33.942C 6.3479996 34.097473 6.402966 34.23017 6.5128984 34.340103C 6.6228313 34.450035 6.755532 34.505 6.911 34.505C 7.0664682 34.505 7.1991687 34.450035 7.309101 34.340103C 7.419034 34.23017 7.4740005 34.097473 7.474 33.942" stroke="none" fill="#FFFFFF" fill-rule="nonzero" />
	<g>
	</g>
    <path d="M42.454 34.253C 42.454 34.09753 42.399033 33.96483 42.2891 33.854897C 42.17917 33.744965 42.04647 33.69 41.891 33.69C 41.73553 33.69 41.60283 33.744965 41.492897 33.854897C 41.382965 33.96483 41.328 34.09753 41.328 34.253C 41.328 34.40847 41.382965 34.54117 41.492897 34.6511C 41.60283 34.761032 41.73553 34.816 41.891 34.815998C 42.04647 34.816 42.17917 34.761032 42.2891 34.6511C 42.399033 34.54117 42.454 34.40847 42.454 34.253" stroke="none" fill="#FFFFFF" fill-rule="nonzero" />
	<g>
	</g>
	<g>
	</g>
    <path d="M40.398 17.82C 39.523 15.761999 38.282997 13.929 36.704998 12.351C 35.127 10.773 33.295 9.533 31.235998 8.659C 29.122997 7.7570004 26.866999 7.3050003 24.527998 7.3050003C 22.216997 7.3050003 19.961998 7.7560005 17.819998 8.659C 15.761997 9.533 13.929997 10.773001 12.351997 12.351C 10.773997 13.929 9.533998 15.762 8.659998 17.82C 7.757998 19.932999 7.306998 22.188 7.306998 24.528C 7.306998 26.867 7.757998 29.123 8.659998 31.236C 9.533998 33.295 10.773998 35.127 12.351997 36.705C 13.930998 38.283 15.762998 39.523003 17.819998 40.397003C 18.467999 40.679005 19.116999 40.904003 19.792997 41.101C 19.792997 41.101 19.792997 41.101 19.820997 41.101C 20.158997 41.214 20.497997 41.298 20.835997 41.355003C 22.047997 41.609005 23.287996 41.750004 24.556997 41.750004C 25.317997 41.750004 26.078997 41.694004 26.840998 41.609005C 27.291998 41.582005 27.572998 41.525005 27.799997 41.468006C 28.983997 41.242004 30.137997 40.904007 31.266998 40.425007C 33.323997 39.551006 35.156 38.31101 36.733997 36.733006L36.733997 36.733006L36.622997 36.621006L36.733997 36.733006C 38.314 35.154007 39.553997 33.322006 40.427 31.265005C 41.329 29.150005 41.781 26.896006 41.781 24.556005C 41.75 22.188 41.299 19.934 40.398 17.82zM13.845 37.578C 13.817 37.551 13.788 37.494 13.788 37.437C 13.788 37.41 13.816 37.38 13.816 37.353C 13.9 37.212 14.013 37.042 14.126 36.93C 14.295 37.325 14.746 38.058 15.648001 38.874C 15.029 38.48 14.437 38.029 13.845 37.578zM13.704 27.375C 14.071 27.713 14.127001 28.023 14.127001 28.221C 14.127001 28.305 14.127001 28.362001 14.099001 28.418001C 14.099001 28.446001 14.099001 28.446001 14.071001 28.475C 14.043001 28.502 13.930001 28.756 13.535001 28.756C 13.478001 28.756 13.394001 28.756 13.338001 28.729C 12.661001 28.587 12.013001 28.334 11.449001 28.278L11.449001 28.278L11.421001 28.278L12.746001 26.473C 13.168 26.84 13.535 27.206 13.704 27.375zM10.97 24.359L19.539001 15.705999L14.381001 27.742C 14.297002 27.545 14.155002 27.318 13.958001 27.094C 13.479 26.643 11.505 24.839 10.97 24.359zM13.253 29.066C 13.337 29.094 13.45 29.094 13.535 29.094C 13.845 29.094 14.071 28.982 14.183 28.868C 14.323999 28.755 14.379999 28.642 14.379999 28.614L14.379999 28.614L14.379999 28.586L19.651 16.269001C 19.651 16.354 19.678999 16.523 19.706999 16.580002C 19.790998 17.961002 20.102 18.919003 20.439999 19.681002C 20.637 20.104002 20.835 20.442001 20.975998 20.667002C 21.059998 20.779001 21.116999 20.864002 21.172998 20.948002C 21.200998 20.976002 21.200998 21.005001 21.228998 21.005001L21.228998 21.005001L19.988998 25.233002C 19.960999 25.29 19.988998 25.375002 20.045998 25.430002L20.045998 25.430002L20.327997 25.657001C 20.327997 25.657001 20.355997 25.684002 20.355997 25.741001C 20.327997 25.798 19.002996 30.786001 19.002996 30.786001L19.002996 30.786001L14.717997 35.691C 14.407996 35.437 13.477997 34.563004 12.237997 32.647003C 11.166997 30.983004 10.856997 29.940002 10.856997 29.348003C 10.856997 29.038004 10.940996 28.869003 11.025996 28.756004C 11.025996 28.756004 11.025996 28.756004 11.053996 28.729004C 11.137996 28.616003 11.279996 28.587004 11.3639965 28.587004L11.3639965 28.587004L11.391996 28.587004C 11.9 28.672 12.548 28.926 13.253 29.066zM22.33 10.942C 22.302 10.857 22.217 10.801001 22.104 10.829C 22.188 10.773001 22.245 10.688001 22.33 10.632001L22.33 10.632001L23.063 10.548001C 23.147 10.548001 23.232 10.435001 23.204 10.351002C 23.204 10.266002 23.091 10.182002 23.007 10.209002L23.007 10.209002L22.894 10.237001C 23.119999 10.096002 23.373 9.983002 23.571 9.899001C 23.712 9.842001 23.824 9.814001 23.908998 9.786001C 23.993998 9.759001 24.022 9.759001 24.022 9.759001C 24.106998 9.731001 24.163 9.646001 24.135 9.533001C 24.107 9.448001 24.022 9.391001 23.909 9.420001C 23.909 9.420001 23.627 9.505001 23.233 9.674001C 23.289 9.589001 23.261 9.477001 23.177 9.420001C 23.092001 9.363001 22.98 9.392001 22.923 9.448001L22.923 9.448001L22.528 10.011001C 22.5 10.0390005 22.444 10.068001 22.414999 10.096001C 22.359 10.124001 22.301998 10.181001 22.245998 10.208001L22.245998 10.208001L22.273998 10.1240015C 22.330997 10.039001 22.273998 9.927002 22.189999 9.898002C 22.105999 9.8410015 21.992998 9.898002 21.963999 9.982001L21.963999 9.982001L21.540998 10.828001C 21.427998 10.941001 21.343998 11.025001 21.258999 11.110001C 21.258999 10.659 21.4 9.870001 21.907 9.475C 22.414 9.08 22.809 9.024 23.175999 9.024C 23.373 9.024 23.571 9.052 23.710999 9.081C 23.795998 9.081 24.048998 9.165 24.274998 9.222C 24.500998 9.279 24.725998 9.335 24.725998 9.335L24.725998 9.335L24.781998 9.335C 25.034998 9.335 25.175997 9.391 25.232998 9.476C 25.289997 9.533 25.317997 9.6449995 25.317997 9.73C 25.317997 9.813999 25.289997 9.926999 25.232998 9.983C 25.205997 10.011 25.205997 10.04 25.175999 10.04L25.175999 10.04L23.88 10.182C 23.823 10.182 23.796 10.209001 23.766998 10.238L23.766998 10.238L22.949999 11.309L22.554998 11.309L22.526999 11.309C 22.498999 11.309 22.442999 11.337 22.357998 11.394C 22.272999 11.45 22.188997 11.591 22.188997 11.76C 22.188997 12.070001 22.301998 12.295 22.414997 12.437L22.414997 12.437L22.442997 12.464001L21.907 13C 21.823 12.972 21.681 12.943 21.569 12.831C 21.4 12.718 21.259 12.549001 21.203001 12.267C 21.175001 12.098001 21.175001 11.957 21.175001 11.844C 21.175001 11.731999 21.175001 11.647 21.203001 11.591C 21.203001 11.591 21.287 11.506 21.400002 11.394L21.400002 11.394L22.133001 11.14C 22.33 11.14 22.386 11.026 22.33 10.942zM24.979 12.267C 24.979 12.267 24.979 12.324 24.923 12.352C 24.866001 12.38 24.839 12.437 24.839 12.464001C 24.839 12.521001 24.839 12.577001 24.867 12.606001C 24.867 12.606001 24.867 12.634001 24.867 12.663001C 24.867 12.6900015 24.839 12.719001 24.839 12.719001C 24.811 12.776001 24.811 12.804001 24.811 12.861001C 24.811 12.888001 24.839 12.945001 24.839 13.002001C 24.839 13.030001 24.811 13.143001 24.754002 13.1710005C 24.698002 13.199 24.585001 13.228001 24.444002 13.228001L24.444002 13.228001L24.078003 13.228001C 23.994003 13.228001 23.909002 13.285001 23.909002 13.369C 23.909002 13.369 23.909002 13.426001 23.909002 13.482C 23.909002 13.566 23.909002 13.707001 23.994001 13.877001C 24.022001 13.933001 24.050001 13.989001 24.107002 14.0460005L24.107002 14.0460005L24.727003 14.723001L23.120003 14.835001L22.021004 13.989001C 22.077003 13.961001 22.105003 13.932001 22.105003 13.932001C 22.161003 13.905001 22.189003 13.8480015 22.189003 13.791001L22.189003 13.791001L22.189003 13.284001L22.894003 12.579001C 22.951002 12.522001 22.951002 12.4660015 22.951002 12.410002C 22.923002 12.353002 22.894003 12.297002 22.838001 12.297002C 22.810001 12.269002 22.584002 12.213002 22.584002 11.790002C 22.584002 11.733002 22.612001 11.705002 22.612001 11.705002C 22.612001 11.705002 22.612001 11.705002 22.640001 11.705002L22.640001 11.705002L23.091002 11.705002C 23.148 11.705002 23.204002 11.677002 23.232002 11.648002C 23.232002 11.648002 23.965002 10.6900015 24.021002 10.633001C 24.078001 10.577002 24.134003 10.577002 24.134003 10.577002L24.134003 10.577002L25.121002 10.464002C 25.121002 10.464002 25.177002 10.464002 25.177002 10.521002C 25.177002 10.605001 25.206001 10.718001 25.206001 10.831002C 25.206001 10.888002 25.177002 10.888002 25.149002 10.888002C 25.036001 10.888002 24.895002 10.888002 24.754002 10.888002C 24.613 10.888002 24.444002 10.973002 24.359001 11.057002C 24.275002 11.114002 24.275002 11.254002 24.359001 11.311002C 24.387001 11.339002 24.472002 11.368002 24.585001 11.396002C 24.698 11.424002 24.839 11.480001 24.895 11.452002C 24.979 11.425001 25.008001 11.340001 25.008001 11.255002C 25.008001 11.171002 25.064001 11.114002 25.149002 11.114002C 25.176003 11.114002 25.206001 11.142002 25.206001 11.171002C 25.233002 11.340002 25.262001 11.566003 25.262001 11.678002C 25.262001 11.7350025 25.262001 11.791002 25.262001 11.847002C 25.262001 11.904002 25.206001 11.904002 25.177002 11.904002C 25.121002 11.904002 25.065002 11.904002 25.065002 11.904002C 25.009003 11.904002 24.981003 11.932002 24.952002 11.961002C 24.924002 11.989002 24.896002 12.046002 24.896002 12.073003L24.896002 12.073003L24.979 12.267zM22.978 15.143C 23.006 15.17 23.034 15.17 23.09 15.17L23.09 15.17L25.091 15.029C 25.147999 15.029 25.204 14.972 25.232 14.917C 25.26 14.86 25.232 14.775 25.205 14.747L25.205 14.747L24.838 14.351999C 25.035 14.408999 25.231998 14.464999 25.373 14.521999C 25.486 14.549 25.684 14.718999 25.852999 14.943999C 26.020998 15.141999 26.164 15.3949995 26.248 15.591999C 26.164 15.958999 26.078 16.296999 25.967 16.662998L25.967 16.662998L25.092 17.310999L23.147 16.013998C 23.063 15.872998 22.583 15.224998 22.16 14.773998C 21.935 14.547998 21.597 14.463998 21.286 14.463998C 21.229 14.463998 21.172998 14.463998 21.116999 14.463998C 21.200998 14.406998 21.286 14.378998 21.369999 14.321998C 21.483 14.265998 21.623999 14.180998 21.737 14.124998L21.737 14.124998L22.978 15.143zM21.287 14.804C 21.54 14.804 21.794 14.889 21.935001 15.03C 22.160002 15.256 22.414001 15.565 22.583002 15.818999C 22.780003 16.073 22.893002 16.241999 22.893002 16.269999C 22.893002 16.297998 22.921001 16.297998 22.95 16.326998L22.95 16.326998L25.035 17.707998C 25.092 17.735998 25.176 17.735998 25.232 17.707998L25.232 17.707998L27.882 15.706999C 27.882 15.706999 27.939 15.649999 28.023 15.593999C 28.107 15.537999 28.193 15.452999 28.248001 15.424999C 28.391 15.341 28.982 15.001999 29.348001 14.973999C 29.377 14.973999 29.405 14.973999 29.434002 14.973999C 29.602001 14.973999 29.743002 15.001999 29.799002 15.058999C 29.855001 15.115999 29.885002 15.143999 29.885002 15.255999C 29.885002 15.452998 29.885002 15.790998 29.885002 15.790998C 29.885002 15.8759985 29.940002 15.932999 30.026003 15.932999C 30.083002 15.932999 30.167004 15.960999 30.167004 16.044998C 30.167004 16.157999 30.083004 16.185999 30.054003 16.185999C 29.997004 16.185999 29.941002 16.213999 29.913002 16.213999L29.913002 16.213999L29.743002 16.213999L29.688002 16.213999C 29.688002 16.213999 29.461002 16.270998 29.237001 16.327C 29.124 16.355 28.983002 16.383999 28.897001 16.411C 28.842001 16.411 28.813002 16.439 28.756 16.439C 28.729 16.439 28.729 16.439 28.729 16.439C 28.588 16.439 28.334 16.467 28.334 16.467C 28.277 16.467 28.248 16.494999 28.220999 16.551998C 28.220999 16.551998 27.939999 16.974998 27.572998 17.453C 27.177998 17.876 26.756998 18.439999 26.445997 18.722C 26.164997 19.004 25.910997 19.23 25.740997 19.399C 25.683998 19.456 25.627996 19.484 25.599997 19.511C 25.570997 19.539 25.542997 19.539 25.486996 19.539C 25.232996 19.427 24.697996 19.229 24.048996 18.946999C 23.146996 18.551998 22.019997 18.044998 21.173996 17.593998C 21.004995 17.508999 20.694996 17.311998 20.468996 17.057999C 20.440996 17.029999 20.411997 17.001999 20.384996 16.973999L20.384996 16.973999L20.356997 16.946C 20.328997 16.918 20.328997 16.889 20.299997 16.861C 20.299997 16.833 20.271997 16.833 20.271997 16.804C 20.271997 16.777 20.243998 16.777 20.243998 16.748001C 20.243998 16.719002 20.215998 16.720001 20.215998 16.691002L20.215998 16.691002L20.215998 16.663002C 20.187998 16.635002 20.159998 16.579002 20.159998 16.522001C 20.159998 16.522001 20.159998 16.522001 20.159998 16.494001C 20.159998 16.466002 20.131998 16.437002 20.131998 16.409002C 20.103998 16.353003 20.103998 16.325003 20.103998 16.268002C 20.103998 16.240002 20.103998 16.240002 20.103998 16.211002C 20.103998 16.182003 20.103998 16.183002 20.103998 16.155003C 20.103998 16.127003 20.103998 16.070004 20.103998 16.042002C 20.103998 16.014 20.103998 15.985002 20.103998 15.958002C 20.103998 15.930002 20.103998 15.901002 20.103998 15.901002C 20.103998 15.844002 20.131998 15.788002 20.131998 15.732002C 20.131998 15.704002 20.159998 15.647002 20.159998 15.619002C 20.159998 15.591002 20.187998 15.562002 20.187998 15.507002C 20.187998 15.507002 20.187998 15.507002 20.187998 15.479002C 20.215998 15.451002 20.215998 15.422002 20.244997 15.394002L20.244997 15.394002L20.244997 15.366002C 20.272997 15.339002 20.300997 15.282002 20.300997 15.254002C 20.413 15.001 20.864 14.804 21.287 14.804zM26.699 12.183C 26.699 12.098 26.726 12.098 26.726 12.098C 26.98 12.125999 27.121 12.266999 27.234 12.351999C 27.290998 12.408999 27.317999 12.492999 27.347 12.548999C 27.347 12.576999 27.374 12.605999 27.374 12.605999C 27.374 12.689999 27.458 12.746999 27.544 12.746999L27.544 12.746999L30.927 12.746999C 31.011 12.746999 31.095 12.689999 31.095 12.605999C 31.095 12.577999 31.123999 12.492999 31.236 12.379999C 31.322 12.294999 31.463 12.2109995 31.744 12.183C 31.771 12.183 31.800999 12.2109995 31.800999 12.24C 31.800999 12.606 31.800999 13.339 31.800999 14.41C 31.800999 15.283999 32.025997 15.988 32.252 16.693C 32.476997 17.398 32.674 18.102001 32.674 18.976002C 32.674 19.455002 32.59 19.906002 32.42 20.329002C 32.252 20.245003 32.139 20.188002 32.054996 20.160002C 32.025997 20.160002 31.997997 20.160002 31.968996 20.160002C 31.827995 20.160002 31.743996 20.217001 31.659996 20.273003C 31.573996 20.329002 31.518995 20.385002 31.462996 20.499002C 31.462996 20.526003 31.433996 20.583002 31.433996 20.611002C 31.433996 20.696001 31.462996 20.780003 31.490995 20.808002C 31.463995 20.836002 31.406996 20.865002 31.377995 20.921003C 31.322994 20.977003 31.266994 21.033003 31.209995 21.090004C 31.152996 21.146004 31.125996 21.202003 31.096994 21.287004C 31.069994 21.344004 31.069994 21.399004 31.069994 21.456005C 31.069994 21.568005 31.096994 21.653006 31.153994 21.766005C 30.618994 22.077005 29.969994 22.245005 29.180994 22.245005C 28.024994 22.245005 27.207994 21.850004 26.643993 21.259005C 26.248993 20.836004 25.995993 20.301004 25.881994 19.737005C 26.051994 19.596004 26.361994 19.342005 26.727995 18.948006C 26.784994 18.891006 26.868996 18.807005 26.924995 18.722006C 27.037996 19.145006 27.291996 19.511005 27.602995 19.793005C 28.051994 20.159004 28.616995 20.385006 29.237995 20.385006L29.237995 20.385006L29.264996 20.385006L29.291996 20.385006C 30.588997 20.385006 31.574997 19.230005 31.574997 17.961006C 31.574997 17.398006 31.433996 17.003006 31.322996 16.383007C 31.209995 15.763007 31.068996 14.917007 31.068996 13.395007C 31.068996 13.338007 31.039997 13.310007 31.011997 13.283007C 30.982998 13.255007 30.927998 13.2260065 30.898996 13.2260065L30.898996 13.2260065L27.572996 13.2260065C 27.515997 13.2260065 27.488997 13.254006 27.459995 13.283007C 27.432995 13.310007 27.404995 13.367006 27.404995 13.395007C 27.404995 14.466007 27.347996 15.170007 27.234995 15.707007L27.234995 15.707007L26.445995 16.299007C 26.502995 16.073008 26.558996 15.848007 26.613995 15.622007L26.613995 15.622007L26.613995 15.5940075C 26.670994 15.284007 26.699995 14.974008 26.699995 14.664007C 26.727 13.507 26.699 12.605 26.699 12.183zM31.52 21.738C 31.434 21.596 31.407 21.512001 31.407 21.456001C 31.407 21.428001 31.407 21.428001 31.407 21.399002C 31.407 21.371002 31.52 21.258001 31.604 21.173002C 31.688 21.089003 31.772 21.032001 31.772 21.032001C 31.828999 21.004002 31.858 20.920002 31.858 20.891C 31.858 20.834002 31.829 20.806002 31.829 20.778C 31.829 20.749998 31.802 20.722 31.802 20.722C 31.802 20.694 31.773 20.637001 31.829 20.58C 31.885 20.522999 31.970001 20.552 31.999 20.552C 32.056 20.58 32.169 20.637 32.28 20.694C 32.420998 20.778 32.591 20.92 32.647 21.004C 32.704 21.088999 32.76 21.23 32.76 21.315C 32.76 21.371 32.731 21.427 32.703 21.456001C 32.646 21.513 32.139 21.935001 32.082 21.991001C 32.025 22.019001 31.801 22.133001 31.631 22.188002C 31.574001 22.216002 31.52 22.216002 31.49 22.245C 31.433 22.273 31.406 22.217001 31.406 22.217001C 31.406 22.217001 31.406 22.189001 31.406 22.161001C 31.433 22.133001 31.463 22.104002 31.49 22.076002C 31.519 22.048002 31.574 21.991003 31.574 21.879002C 31.547 21.822 31.547 21.766 31.52 21.738zM32.025 33.746C 32.025 33.746 32.025 33.802 31.998001 33.829998C 31.969002 33.857998 30.728 34.535 30.728 34.535L30.728 34.535L30.587 22.386C 30.728 22.33 30.869999 22.302 30.982 22.244999L30.982 22.244999L32.025 33.746zM26.445 39.354C 26.445 39.354 26.896 39.947 26.924 39.974C 26.953 40.002 26.924 40.031 26.924 40.031C 26.248 40.593998 25.149 40.961 23.88 41.100998C 24.077 40.199997 24.838 36.590996 25.401999 32.927C 25.994 29.149998 26.248 25.571 26.303999 24.809998C 26.303999 24.809998 26.755 24.781998 26.838999 24.781998C 26.922998 24.781998 26.922998 24.809998 26.922998 24.865997C 26.922998 24.922997 26.414999 39.241997 26.414999 39.241997C 26.416 39.299 26.416 39.326 26.445 39.354zM20.413 25.092C 20.413 25.092 21.54 21.202 21.54 21.146C 21.568 21.09 21.597 21.09 21.597 21.09C 21.597 21.09 22.414 20.864 22.555 20.808C 22.696001 20.751001 22.893 20.751001 22.893 20.751001L22.893 20.751001L25.713 20.582C 25.854 20.921001 26.050999 21.230001 26.331999 21.513C 26.558998 21.766 26.839998 21.964 27.15 22.133001C 27.15 22.133001 27.15 24.275002 27.15 24.331001C 27.15 24.359001 27.121 24.416 27.036999 24.416C 26.952997 24.416 24.189999 24.613 23.512999 24.669C 23.428999 24.669 23.286999 24.697 23.203 24.726C 23.089998 24.754 20.695 25.403 20.695 25.403C 20.695 25.403 20.61 25.403 20.581999 25.375C 20.553999 25.347 20.525 25.318 20.440998 25.263C 20.385 25.232 20.413 25.092 20.413 25.092zM21.484 20.724C 21.202 20.357 20.413 19.230001 20.158998 17.201C 20.186998 17.228 20.186998 17.257 20.214998 17.257C 20.496998 17.568 20.835 17.765 21.031998 17.848999C 22.751997 18.779999 25.541998 19.879 25.541998 19.879C 25.568998 19.991 25.598997 20.105 25.625998 20.217L25.625998 20.217L23.004997 20.414C 23.004997 20.414 22.694998 20.414 22.468998 20.498999C 22.215998 20.582998 21.594997 20.751999 21.538998 20.751999C 21.512 20.779 21.484 20.751 21.484 20.724zM27.262 24.726L27.375 24.698C 27.459 24.67 27.516 24.614 27.516 24.529L27.516 24.529L27.516 22.273998C 27.967001 22.470999 28.502 22.555998 29.123001 22.555998C 29.518002 22.555998 29.885 22.498999 30.223001 22.442997L30.223001 22.442997L30.391 36.338997C 30.391 36.338997 30.391 36.338997 30.391 36.367996C 30.391 36.508995 30.364 37.015995 29.94 37.297997C 29.434 37.664997 28.305 38.256996 26.784 38.283997L26.784 38.283997L27.262 24.726zM27.207 18.412C 27.602001 17.904001 28.051 17.312 28.305 16.974L28.305 16.974L28.305 19.849C 28.137001 19.764002 27.967001 19.68 27.826 19.538C 27.488 19.258 27.262 18.891 27.207 18.412zM28.645 19.962L28.645 16.721C 28.672 16.721 28.7 16.721 28.729 16.721C 28.813 16.721 28.87 16.693 28.983 16.693C 29.01 16.693 29.039999 16.665 29.094 16.665L29.094 16.665L29.094 20.048C 28.926 20.047 28.785 20.019 28.645 19.962zM29.434 20.047L29.434 16.58C 29.602 16.552 29.743 16.495 29.772 16.495L29.772 16.495L29.828999 16.495L29.828999 19.990002C 29.715 20.019 29.574 20.047 29.434 20.047zM30.504 15.79C 30.477 15.734 30.447 15.649 30.334 15.593C 30.307 15.593 30.279 15.565001 30.25 15.565001C 30.25 15.453 30.25 15.312 30.25 15.199C 30.25 15.115001 30.25 15.030001 30.223 14.973001L30.223 14.973001L30.223 13.592001L30.758 13.592001C 30.758 15.030001 30.899 15.875001 31.012 16.467001C 31.153 17.115002 31.265999 17.482 31.265999 17.989C 31.265999 18.552 31.039 19.06 30.702 19.455C 30.560999 19.624 30.390999 19.736 30.223 19.85L30.223 19.85L30.223 16.467001L30.25 16.467001C 30.279 16.467001 30.279 16.467001 30.307 16.467001L30.307 16.467001L30.334 16.467001C 30.390999 16.467001 30.447 16.439001 30.477 16.410002C 30.560999 16.326002 30.560999 16.269001 30.560999 16.213001C 30.560999 16.157001 30.588 16.072 30.588 16.016C 30.531 15.932 30.531 15.875 30.504 15.79zM29.828 13.563L29.828 14.634C 29.714998 14.577 29.574 14.577 29.404 14.577L29.404 14.577L29.404 13.591L29.828 13.591L29.828 13.563zM29.066 13.563L29.066 14.606C 28.925 14.634 28.755 14.691 28.615 14.747L28.615 14.747L28.615 13.563L29.066 13.563zM28.305 13.563L28.305 14.917C 28.194 14.973 28.108 15.029 28.051 15.058C 27.883001 15.17 27.686 15.339999 27.656 15.368C 27.713 14.918 27.769001 14.325 27.769001 13.536L27.769001 13.536L28.304 13.536L28.304 13.563zM14.606 36.395C 14.663 36.338 19.314 30.983 19.314 30.983C 19.342 30.956 19.342 30.927 19.342 30.927C 19.342 30.927 20.723 25.824 20.723 25.797C 20.723 25.769001 20.779999 25.740002 20.779999 25.740002C 20.779999 25.740002 23.231998 25.064001 23.317 25.035002C 23.401 25.008001 23.543 25.008001 23.543 25.008001L23.543 25.008001L24.896 24.923002C 24.868 25.092003 24.84 25.346003 24.812 25.656002C 24.586 27.375002 23.882 31.095001 22.162 33.097C 19.597 36.113 16.046001 36.423 14.721001 36.423C 14.693001 36.423 14.665001 36.423 14.637001 36.423C 14.606 36.451 14.55 36.451 14.606 36.395zM14.521 36.789C 14.578 36.789 14.662 36.789 14.717999 36.789C 16.098999 36.789 19.736 36.479 22.413 33.322002C 24.612 30.729002 25.147 25.740002 25.231 24.894001L25.231 24.894001L25.909 24.838001C 25.909 25.204 25.852001 26.050001 25.739 27.177002C 25.598 28.698002 25.372 30.757002 25.034 32.870003C 24.696001 34.985004 24.302 37.070004 23.992 38.649002C 23.766 39.804 23.569 40.678 23.485 41.045002C 23.485 41.073 23.428001 41.13 23.344 41.13C 23.147 41.13 22.949 41.157 22.78 41.157C 22.16 41.157 21.512001 41.100002 20.863 40.988003C 20.525002 40.903004 20.186 40.819004 19.848001 40.735004C 17.452002 39.973003 16.071001 38.930004 15.2820015 38.057003C 14.887001 37.633003 14.634002 37.239002 14.493002 36.957005C 14.465002 36.900005 14.436002 36.872005 14.436002 36.844006C 14.465 36.818 14.494 36.789 14.521 36.789zM24.472 41.385C 25.459 41.215 26.332 40.877 26.981 40.426L26.981 40.426L27.516 40.594997C 27.545 40.594997 27.545 40.594997 27.573 40.594997C 27.573 40.594997 28.081 40.566998 28.108 40.566998C 28.249 40.566998 28.305 40.651997 28.305 40.679996C 28.305 40.706997 28.305 40.736996 28.305 40.736996C 28.305 40.736996 28.305 40.820995 28.248001 40.877995C 28.193 40.934994 27.799002 41.046993 27.656002 41.074993C 26.613003 41.27199 25.570002 41.35599 24.500002 41.35599C 24.5 41.385 24.472 41.385 24.472 41.385zM40.088 31.067C 39.242 33.068 38.029 34.873 36.481003 36.423C 34.930004 37.973 33.126003 39.185 31.126003 40.03C 30.335003 40.368 29.519003 40.621998 28.700003 40.847L28.700003 40.847L28.673002 40.508C 28.673002 40.311 28.448002 40.197998 28.306002 40.197998L28.306002 40.197998L27.574001 40.197998C 27.574001 40.197998 27.349 40.142 27.320002 40.142C 27.293001 40.142 27.293001 40.113 27.293001 40.085C 27.35 40.028 27.35 39.944 27.293001 39.857998L27.293001 39.857998L26.729002 39.126L26.758001 38.618C 28.393002 38.591 29.576002 37.971 30.139002 37.548C 30.676003 37.153 30.731003 36.533 30.731003 36.335C 30.731003 36.308 30.731003 36.279 30.731003 36.279L30.731003 36.279L30.704002 34.841C 30.704002 34.841 30.704002 34.841 30.731003 34.841L30.731003 34.841L32.282 33.967C 32.339 33.94 32.368 33.883 32.368 33.798L32.368 33.798L31.35 22.527C 31.407 22.499 31.547 22.470001 31.688 22.414C 31.885 22.33 32.083 22.244999 32.223 22.188C 32.336 22.104 32.787 21.709 32.901 21.596C 32.985 21.484001 33.042 21.37 33.042 21.230001C 33.042 21.033 32.958 20.892002 32.901 20.751001C 32.844 20.639002 32.760002 20.554 32.647 20.470001C 32.871998 19.991001 32.958 19.484001 32.958 18.919C 32.958 17.961 32.731 17.228 32.507 16.523C 32.28 15.818001 32.083 15.142 32.083 14.324001C 32.083 12.803001 32.112 11.900002 32.112 11.900002C 32.112 11.843001 32.083 11.816002 32.055 11.788001C 32.026 11.760001 31.969 11.731001 31.942 11.731001C 31.434 11.731001 31.126 11.900001 30.928 12.097001C 30.842 12.182001 30.785 12.266001 30.758 12.351001L30.758 12.351001L27.685999 12.351001C 27.657 12.266001 27.602 12.182001 27.515999 12.069001C 27.348 11.872002 27.036999 11.646001 26.529999 11.674001C 26.473 11.674001 26.446 11.702001 26.416998 11.731001C 26.389997 11.759001 26.361998 11.816001 26.361998 11.843001C 26.361998 11.843001 26.361998 12.9990015 26.361998 14.606001C 26.361998 14.719001 26.361998 14.860001 26.332998 14.972001C 26.276 14.860001 26.191998 14.775002 26.135998 14.662001C 25.938997 14.408001 25.740997 14.183001 25.487997 14.126C 25.261997 14.070001 24.924997 13.957001 24.529997 13.845C 24.388996 13.788 24.332996 13.732 24.276997 13.648001C 24.248997 13.591001 24.248997 13.563001 24.220997 13.5060005L24.220997 13.5060005L24.417997 13.5060005C 24.586998 13.5060005 24.727997 13.479 24.868998 13.422001C 24.981998 13.365001 25.094997 13.281001 25.150997 13.140001C 25.177998 13.056002 25.177998 12.9990015 25.177998 12.943002C 25.177998 12.887002 25.177998 12.802002 25.150997 12.774002L25.150997 12.774002L25.234997 12.633002C 25.262997 12.576002 25.262997 12.520002 25.234997 12.491002C 25.262997 12.463002 25.291996 12.407002 25.291996 12.350002L25.291996 12.350002L25.291996 12.181003L25.319996 12.181003C 25.375996 12.181003 25.431995 12.153003 25.488997 12.124002C 25.517996 12.124002 25.545996 12.096003 25.572996 12.067002C 25.601995 12.040002 25.629995 11.983003 25.629995 11.9260025C 25.629995 11.869002 25.629995 11.757003 25.602995 11.588002C 25.573996 11.165002 25.489994 10.432002 25.489994 10.206002C 25.573994 10.122003 25.686995 9.925002 25.686995 9.671002C 25.686995 9.502003 25.629995 9.305002 25.489994 9.163002C 25.348993 9.022002 25.123995 8.938002 24.813993 8.938002C 24.672993 8.910002 23.967993 8.712002 23.770994 8.684002C 23.629993 8.656002 23.432995 8.627002 23.178993 8.627002C 22.783993 8.627002 22.276993 8.739002 21.712994 9.162002C 21.007994 9.726002 20.951994 10.741001 20.922993 11.192001C 20.922993 11.276001 20.922993 11.333001 20.922993 11.389001C 20.894993 11.473001 20.866993 11.615001 20.866993 11.839001C 20.866993 11.981001 20.866993 12.121 20.894993 12.318001C 20.950993 12.769001 21.232992 13.051001 21.486992 13.1640005C 21.599993 13.249001 21.740992 13.277 21.824991 13.305L21.824991 13.305L21.824991 13.644C 21.68399 13.7 20.837992 14.095 19.991991 14.659C 19.963991 14.687 19.907991 14.716001 19.85099 14.8L19.85099 14.8L10.577991 24.242C 10.549991 24.27 10.549991 24.327 10.549991 24.384C 10.549991 24.441002 10.577991 24.468 10.60599 24.496C 10.60599 24.496 11.25399 25.088001 11.95899 25.736C 12.12799 25.905 12.32599 26.074 12.49499 26.215L12.49499 26.215L10.7759905 28.555C 10.634991 28.752 10.549991 29.006 10.549991 29.344C 10.549991 30.049 10.915991 31.149 11.98799 32.84C 13.22799 34.756 14.186991 35.658 14.52499 35.94L14.52499 35.94L14.07399 36.447998C 14.04599 36.475998 13.90499 36.617996 13.763989 36.815C 13.67999 36.927 13.59499 37.039997 13.53799 37.153C 13.50999 37.18 13.50999 37.21 13.480989 37.237C 13.170989 36.982998 12.888989 36.702 12.578989 36.420998C 11.028989 34.87 9.816989 33.065998 8.970989 31.064999C 8.09699 28.98 7.6459894 26.780998 7.6459894 24.498C 7.6459894 22.215 8.09699 20.016998 8.970989 17.931C 9.816989 15.93 11.02899 14.125 12.578989 12.576C 14.128989 11.025001 15.932989 9.813 17.933989 8.968C 20.019989 8.095 22.218988 7.6440005 24.501987 7.6440005C 26.784986 7.6440005 28.983988 8.095 31.069988 8.968C 33.06999 9.814 34.87499 11.026001 36.424988 12.576C 37.973988 14.126 39.18699 15.93 40.031986 17.931C 40.904987 20.017 41.355988 22.215 41.355988 24.498C 41.412 26.783 40.961 29.01 40.088 31.067z" stroke="none" fill="#FFFFFF" fill-rule="nonzero" />
	<g>
	</g>
    <path d="M4.825 25.966C 5.022 25.938 5.192 25.938 5.332 25.966C 5.4729996 25.994 5.586 26.050999 5.699 26.135C 5.783 26.219 5.868 26.332 5.9249997 26.473C 5.981 26.615 6.0369997 26.784 6.0369997 26.980999C 6.0649996 27.15 6.0649996 27.318998 6.0369997 27.46C 6.009 27.602 5.9809995 27.743 5.896 27.855999C 5.8389997 27.967999 5.7269998 28.053 5.614 28.137999C 5.501 28.221998 5.191 28.279 5.191 28.279C 5.163 28.279 5.106 28.279 5.078 28.306L5.078 28.306L3.5560002 28.503C 3.528 28.503 3.5000002 28.532 3.5000002 28.56L3.5000002 28.56L3.5000002 28.786999C 3.5000002 28.814 3.4720001 28.842999 3.4440002 28.842999L3.4440002 28.842999L3.388 28.842999C 3.36 28.842999 3.332 28.814999 3.332 28.786999L3.332 28.786999L3.19 27.77C 3.19 27.743 3.2180002 27.713001 3.246 27.713001L3.246 27.713001L3.303 27.713001C 3.331 27.713001 3.359 27.742 3.359 27.77L3.359 27.77L3.416 27.967001C 3.416 27.995 3.444 28.024 3.472 28.024L3.472 28.024L5.192 27.798C 5.389 27.77 5.558 27.686 5.671 27.545C 5.784 27.403 5.812 27.206 5.784 26.952C 5.756 26.699 5.671 26.529 5.5299997 26.417C 5.389 26.305 4.9669995 26.332 4.9669995 26.332C 4.9389997 26.332 4.8829994 26.332 4.8539996 26.332L4.8539996 26.332L3.3039997 26.529001C 3.2759995 26.529001 3.2469997 26.557001 3.2469997 26.586L3.2469997 26.586L3.2469997 26.812C 3.2469997 26.84 3.2189996 26.868 3.1909997 26.868L3.1909997 26.868L3.134 26.868C 3.106 26.868 3.0770001 26.841 3.0770001 26.812L3.0770001 26.812L2.9640002 25.881C 2.9640002 25.854 2.9920003 25.824001 3.0210001 25.824001L3.0210001 25.824001L3.0770001 25.824001C 3.1050003 25.824001 3.134 25.853 3.134 25.881L3.134 25.881L3.2180002 26.107C 3.2180002 26.135 3.2460003 26.164 3.2740002 26.164L3.2740002 26.164L4.825 25.966z" stroke="none" fill="#FFFFFF" fill-rule="nonzero" />
	<g>
	</g>
    <path d="M2.965 23.57C 2.965 23.542 2.993 23.513 3.0219998 23.485L3.0219998 23.485L5.1639996 22.188L3.3599997 22.046999C 3.3319995 22.046999 3.3039997 22.074999 3.3039997 22.103998L3.3039997 22.103998L3.247 22.33C 3.247 22.358 3.2189999 22.386 3.191 22.386L3.191 22.386L3.134 22.386C 3.106 22.386 3.0770001 22.359 3.0770001 22.33L3.0770001 22.33L3.134 21.456C 3.134 21.428 3.1620002 21.399 3.19 21.399L3.19 21.399L3.246 21.399C 3.2740002 21.399 3.303 21.427 3.303 21.456L3.303 21.456L3.331 21.682C 3.331 21.71 3.3590002 21.738998 3.387 21.738998L3.387 21.738998L5.952 21.935999C 5.98 21.935999 6.0090003 21.963999 6.0090003 21.991999L6.0090003 21.991999L5.9810004 22.245998C 5.9810004 22.273998 5.9530005 22.302998 5.925 22.330997L5.925 22.330997L3.4450002 23.796997L5.53 23.965998C 5.558 23.965998 5.5870004 23.937998 5.5870004 23.908998L5.5870004 23.908998L5.6430006 23.682999C 5.6430006 23.654999 5.6710005 23.626 5.700001 23.626L5.700001 23.626L5.756001 23.626C 5.784001 23.626 5.813001 23.654 5.813001 23.682999L5.813001 23.682999L5.756001 24.557C 5.756001 24.585 5.728001 24.613998 5.700001 24.613998L5.700001 24.613998L5.643 24.613998C 5.6150002 24.613998 5.587 24.585999 5.587 24.557L5.587 24.557L5.559 24.331C 5.559 24.303 5.531 24.274 5.503 24.274L5.503 24.274L3.2199998 24.105C 3.1919997 24.105 3.1629999 24.133 3.1629999 24.161999L3.1629999 24.161999L3.1069999 24.359C 3.1069999 24.387 3.0789998 24.415998 3.05 24.415998L3.05 24.415998L2.993 24.415998C 2.965 24.415998 2.936 24.387999 2.936 24.359L2.936 24.359L2.965 23.57z" stroke="none" fill="#FFFFFF" fill-rule="nonzero" />
	<g>
	</g>
    <path d="M3.867 18.778C 3.8950002 18.778 3.924 18.806 3.924 18.835L3.924 18.835L3.924 19.060999C 3.924 19.088 3.9520001 19.116999 3.98 19.116999L3.98 19.116999L6.207 19.680998C 6.2349997 19.680998 6.263 19.680998 6.291 19.652998L6.291 19.652998L6.375 19.455997C 6.375 19.427998 6.432 19.427998 6.459 19.427998L6.459 19.427998L6.5160003 19.455997C 6.544 19.455997 6.5720005 19.483997 6.544 19.511997L6.544 19.511997L6.29 20.526997C 6.29 20.554996 6.262 20.583996 6.2339997 20.554996L6.2339997 20.554996L6.1769996 20.526997C 6.1489997 20.526997 6.1209993 20.499996 6.1209993 20.470997L6.1209993 20.470997L6.1209993 20.244997C 6.1209993 20.216997 6.0929995 20.187998 6.063999 20.187998L6.063999 20.187998L3.8369992 19.624998C 3.808999 19.624998 3.7799993 19.624998 3.752999 19.652998L3.752999 19.652998L3.642 19.85C 3.642 19.878 3.585 19.878 3.557 19.878L3.557 19.878L3.5 19.85C 3.472 19.85 3.444 19.822 3.472 19.793001L3.472 19.793001L3.7259998 18.778002C 3.7259998 18.750002 3.754 18.721003 3.7819998 18.750002L3.7819998 18.750002L3.867 18.778z" stroke="none" fill="#FFFFFF" fill-rule="nonzero" />
	<g>
	</g>
    <path d="M7.362 17.087C 7.39 17.115 7.39 17.144 7.39 17.171999L7.39 17.171999L7.277 17.453C 7.277 17.480999 7.2209997 17.509998 7.193 17.509998L7.193 17.509998L4.4589996 17.312998C 4.4309998 17.312998 4.4019995 17.340998 4.3749995 17.340998L4.3749995 17.340998L4.2619996 17.481998C 4.233 17.51 4.205 17.51 4.177 17.51L4.177 17.51L4.121 17.482C 4.093 17.482 4.093 17.454 4.093 17.425001L4.093 17.425001L4.46 16.552002C 4.46 16.524002 4.488 16.524002 4.5160003 16.524002L4.5160003 16.524002L4.5730004 16.552002C 4.6010003 16.552002 4.6290007 16.608002 4.6010003 16.636002L4.6010003 16.636002L4.629 16.805002C 4.629 16.833002 4.629 16.862001 4.6860003 16.862001L4.6860003 16.862001L6.8560004 17.031002L5.2490005 15.510002C 5.2210007 15.482002 5.1930003 15.482002 5.1930003 15.510002L5.1930003 15.510002L5.0800004 15.679002C 5.0520005 15.707002 5.0230002 15.707002 4.9960003 15.707002L4.9960003 15.707002L4.91 15.678C 4.882 15.678 4.882 15.621 4.882 15.621L4.882 15.621L5.22 14.832001C 5.22 14.804001 5.277 14.804001 5.277 14.804001L5.277 14.804001L5.333 14.832001C 5.361 14.832001 5.3900003 14.889001 5.361 14.917001L5.361 14.917001L5.305 15.114C 5.305 15.142 5.305 15.17 5.3329997 15.198L5.3329997 15.198L7.362 17.087z" stroke="none" fill="#FFFFFF" fill-rule="nonzero" />
	<g>
	</g>
    <path d="M12.802 9.646C 12.858 9.617 12.943 9.589 13 9.562C 13.084 9.534 13.141 9.505 13.169 9.477C 13.337999 9.364 13.422999 9.251 13.450999 9.111C 13.478999 8.969 13.450999 8.857 13.365999 8.716C 13.309999 8.631 13.253999 8.603 13.169 8.546C 13.085 8.518999 13.028 8.49 12.943999 8.49C 12.858999 8.49 12.775 8.49 12.69 8.518C 12.606 8.545 12.521 8.545 12.436999 8.573999C 12.296 8.601999 12.183 8.601999 12.07 8.631C 11.957 8.631 11.873 8.658999 11.788 8.631C 11.704 8.631 11.619 8.603 11.534 8.546C 11.450001 8.518999 11.393001 8.433999 11.337001 8.349C 11.253001 8.265 11.224001 8.152 11.196001 8.039C 11.168001 7.9259996 11.196001 7.8129997 11.224001 7.7279997C 11.252001 7.6159997 11.337001 7.502 11.4210005 7.4179997C 11.505 7.305 11.618 7.2209997 11.759001 7.107C 11.816001 7.08 11.872001 7.023 11.928 6.995C 11.985001 6.967 12.041 6.9379997 12.125 6.882C 12.182 6.855 12.238 6.8259997 12.323 6.798C 12.379 6.77 12.436 6.7409997 12.436 6.7409997C 12.464 6.7409997 12.492 6.7409997 12.492 6.7409997C 12.492 6.7409997 12.5199995 6.7689996 12.5199995 6.798L12.5199995 6.798L12.745 7.193C 12.745 7.2209997 12.745 7.25 12.717 7.278L12.717 7.278L12.576 7.39C 12.548 7.4179997 12.52 7.4179997 12.492001 7.39L12.492001 7.39L12.238001 7.164C 12.182001 7.164 12.125001 7.164 12.069001 7.192C 12.013001 7.22 11.928001 7.249 11.872002 7.304C 11.731002 7.417 11.646002 7.501 11.618002 7.6429996C 11.590002 7.7549996 11.618002 7.8689995 11.703002 7.9809995C 11.759002 8.065999 11.816002 8.094 11.872002 8.122C 11.928001 8.15 11.985002 8.15 12.069001 8.15C 12.125001 8.15 12.210001 8.15 12.295001 8.122C 12.379001 8.094999 12.436001 8.094999 12.521001 8.066C 12.634001 8.038 12.746001 8.038 12.859001 8.009C 12.972001 7.9799995 13.085001 7.981 13.197001 7.981C 13.309002 7.981 13.423001 8.009 13.507002 8.038C 13.591002 8.067 13.676002 8.150001 13.761002 8.264C 13.845001 8.405 13.902001 8.518 13.902001 8.659C 13.902001 8.771001 13.902001 8.885 13.846002 8.997001C 13.789001 9.110001 13.733002 9.223001 13.620002 9.308001C 13.536002 9.420001 13.394002 9.505 13.2820015 9.618001C 13.169002 9.703001 13.029001 9.787001 12.916001 9.844001C 12.775002 9.901001 12.606001 9.985001 12.606001 9.985001C 12.578001 9.985001 12.549001 10.0130005 12.549001 9.985001C 12.549001 9.985001 12.521001 9.958 12.521001 9.929001L12.521001 9.929001L12.295001 9.534C 12.267001 9.5060005 12.295001 9.477 12.323001 9.449L12.323001 9.449L12.464001 9.337C 12.492001 9.309 12.521001 9.309 12.548 9.337L12.548 9.337L12.802 9.646z" stroke="none" fill="#FFFFFF" fill-rule="nonzero" />
	<g>
	</g>
    <path d="M14.86 5.418C 14.86 5.445 14.86 5.4740005 14.832 5.5020003L14.832 5.5020003L14.663 5.643C 14.635 5.671 14.635 5.7000003 14.635 5.728L14.635 5.728L15.735001 7.757C 15.735001 7.785 15.791 7.785 15.819 7.785L15.819 7.785L16.045 7.7279997C 16.073 7.7279997 16.101 7.7279997 16.129 7.7559996L16.129 7.7559996L16.157 7.8129997C 16.157 7.8409996 16.157 7.87 16.129 7.898L16.129 7.898L15.226999 8.377C 15.198999 8.377 15.171 8.377 15.143 8.349L15.143 8.349L15.115 8.293C 15.115 8.265 15.115 8.236 15.143 8.208L15.143 8.208L15.311999 8.067C 15.339999 8.0390005 15.339999 8.01 15.339999 7.9820004L15.339999 7.9820004L14.212999 5.953C 14.212999 5.925 14.157 5.925 14.129 5.925L14.129 5.925L13.93 5.981C 13.902 5.981 13.874001 5.981 13.846001 5.953L13.846001 5.953L13.818001 5.896C 13.818001 5.868 13.818001 5.8399997 13.846001 5.812L13.846001 5.812L14.748001 5.3329997C 14.776001 5.3329997 14.805001 5.3329997 14.832001 5.3609996L14.832001 5.3609996L14.86 5.418z" stroke="none" fill="#FFFFFF" fill-rule="nonzero" />
	<g>
	</g>
    <path d="M16.016 4.741C 16.016 4.7130003 16.044 4.7130003 16.072 4.684L16.072 4.684L18.215 3.923C 18.243 3.923 18.271 3.895 18.299 3.923C 18.299 3.923 18.327 3.9510002 18.355 3.98L18.355 3.98L18.552 4.43C 18.552 4.4579997 18.552 4.487 18.524 4.487L18.524 4.487L18.355 4.544C 18.327 4.544 18.299 4.544 18.271 4.5160003L18.271 4.5160003L18.129 4.29C 18.101 4.262 18.073 4.262 18.045 4.262L18.045 4.262L17.763 4.347C 17.735 4.347 17.679 4.375 17.65 4.375L17.65 4.375L17.424 4.459L18.214 6.658C 18.214 6.685 18.242 6.714 18.27 6.685L18.27 6.685L18.496 6.658C 18.524 6.658 18.552 6.658 18.552 6.685L18.552 6.685L18.58 6.742C 18.58 6.77 18.58 6.7990003 18.552 6.7990003L18.552 6.7990003L17.566 7.1650004C 17.538 7.1650004 17.509 7.1650004 17.509 7.1370006L17.509 7.1370006L17.481 7.0810003C 17.481 7.0530005 17.481 7.024 17.509 6.9960003L17.509 6.9960003L17.706001 6.8830004C 17.734001 6.8560004 17.734001 6.827 17.734001 6.7990003L17.734001 6.7990003L16.973001 4.6280003L16.747002 4.7130003C 16.719002 4.7130003 16.663002 4.741 16.663002 4.741L16.663002 4.741L16.437002 4.8250003C 16.409002 4.8250003 16.380003 4.8820004 16.380003 4.9100003L16.380003 4.9100003L16.408003 5.1640005C 16.408003 5.1920004 16.380003 5.2210007 16.352003 5.2210007L16.352003 5.2210007L16.183002 5.277001C 16.155003 5.277001 16.127003 5.277001 16.127003 5.249001L16.127003 5.249001L15.986003 4.799001C 15.987 4.798 15.987 4.77 16.016 4.741z" stroke="none" fill="#FFFFFF" fill-rule="nonzero" />
	<g>
	</g>
    <path d="M21.23 5.051L20.272 5.221L20.130999 6.0940003C 20.130999 6.122 20.158998 6.1510005 20.186998 6.1510005L20.186998 6.1510005L20.384998 6.1510005C 20.412998 6.1510005 20.440998 6.1790004 20.440998 6.2080007L20.440998 6.2080007L20.440998 6.264001C 20.440998 6.292001 20.440998 6.321001 20.412998 6.321001L20.412998 6.321001L19.566998 6.490001C 19.538998 6.490001 19.510998 6.490001 19.510998 6.4630013L19.510998 6.4630013L19.510998 6.404C 19.510998 6.376 19.510998 6.3469996 19.538998 6.319L19.538998 6.319L19.707998 6.2349997C 19.735998 6.2349997 19.764997 6.1779995 19.764997 6.1499996L19.764997 6.1499996L20.3 3.416C 20.3 3.3879998 20.328 3.36 20.356998 3.36L20.356998 3.36L20.722998 3.303C 20.750998 3.303 20.779997 3.303 20.806997 3.331L20.806997 3.331L22.159998 5.698C 22.159998 5.726 22.216997 5.755 22.244997 5.755L22.244997 5.755L22.413998 5.755C 22.441998 5.755 22.469997 5.783 22.469997 5.8120003L22.469997 5.8120003L22.469997 5.8680005C 22.469997 5.8960004 22.469997 5.9250007 22.441998 5.9250007L22.441998 5.9250007L21.483997 6.094001C 21.455997 6.094001 21.426998 6.094001 21.426998 6.066001L21.426998 6.066001L21.426998 6.01C 21.426998 5.9820004 21.426998 5.953 21.454998 5.925L21.454998 5.925L21.623999 5.841C 21.651999 5.841 21.651999 5.813 21.651999 5.784L21.651999 5.784L21.23 5.051zM20.525 3.782L20.3 4.995L21.09 4.8529997L20.525 3.782z" stroke="none" fill="#FFFFFF" fill-rule="nonzero" />
	<g>
	</g>
    <path d="M23.852 5.643C 23.907999 5.671 23.993 5.7000003 24.049 5.7000003C 24.133 5.728 24.19 5.728 24.246 5.728C 24.443 5.728 24.584 5.671 24.697 5.5870004C 24.810001 5.5020003 24.866001 5.3900003 24.866001 5.221C 24.866001 5.136 24.838001 5.051 24.810001 4.9950004C 24.782001 4.938 24.726002 4.8820004 24.641 4.8250003C 24.584 4.77 24.5 4.741 24.416 4.685C 24.331001 4.657 24.247 4.601 24.19 4.573C 24.077 4.516 23.964 4.46 23.880001 4.403C 23.796001 4.3469996 23.711 4.291 23.654001 4.2339997C 23.598001 4.1779995 23.541 4.093 23.513 4.0369997C 23.485 3.9529996 23.457 3.8679998 23.457 3.7559998C 23.457 3.643 23.485 3.5299997 23.541 3.4169998C 23.598 3.3329997 23.654001 3.248 23.767 3.1909997C 23.851 3.1349998 23.964 3.0789998 24.105 3.0499997C 24.246 3.0219996 24.387 2.9929998 24.556 2.9929998C 24.612999 2.9929998 24.669 2.9929998 24.753 2.9929998C 24.81 2.9929998 24.894001 3.021 24.95 3.021C 25.007 3.021 25.091002 3.049 25.148 3.049C 25.205 3.0770001 25.26 3.0770001 25.26 3.0770001C 25.288 3.0770001 25.317 3.1050003 25.317 3.1050003C 25.317 3.1050003 25.317 3.1330004 25.317 3.1610003L25.317 3.1610003L25.26 3.6120002C 25.26 3.6400003 25.232 3.6690001 25.204 3.6690001L25.204 3.6690001L25.034 3.6690001C 25.007 3.6690001 24.978 3.641 24.978 3.6120002L24.978 3.6120002L24.894001 3.2740002C 24.866001 3.246 24.810001 3.2170002 24.725 3.2170002C 24.669 3.19 24.584 3.19 24.5 3.19C 24.331 3.19 24.19 3.2180002 24.105 3.303C 24.02 3.387 23.963999 3.5 23.963999 3.613C 23.963999 3.698 23.991999 3.7819998 24.019999 3.839C 24.047998 3.896 24.104998 3.952 24.161 3.981C 24.217999 4.008 24.274 4.065 24.358 4.093C 24.414999 4.121 24.499 4.15 24.555 4.205C 24.639 4.262 24.752 4.318 24.865 4.375C 24.978 4.431 25.062 4.487 25.147 4.572C 25.230999 4.6280003 25.316 4.713 25.372 4.825C 25.428999 4.91 25.458 5.022 25.458 5.1359997C 25.458 5.305 25.401001 5.4179997 25.345 5.5309997C 25.288998 5.6439996 25.203999 5.7279997 25.091 5.785C 24.977999 5.842 24.865 5.897 24.725 5.9259996C 24.584 5.9539995 24.443 5.9539995 24.274 5.9539995C 24.133 5.9539995 23.992 5.9539995 23.851 5.9259996C 23.71 5.898 23.541 5.8689995 23.541 5.8689995C 23.513 5.8689995 23.485 5.8419995 23.485 5.8419995C 23.485 5.8419995 23.485 5.8139997 23.485 5.7849994L23.485 5.7849994L23.541 5.333999C 23.541 5.3059993 23.569 5.276999 23.598 5.276999L23.598 5.276999L23.767 5.276999C 23.795 5.276999 23.823 5.304999 23.823 5.333999L23.823 5.333999L23.852 5.643z" stroke="none" fill="#FFFFFF" fill-rule="nonzero" />
	<g>
	</g>
    <path d="M31.293 6.799C 30.981998 6.968 30.616999 6.968 30.192999 6.856C 29.995998 6.799 29.828 6.686 29.657999 6.574C 29.516998 6.462 29.404 6.3199997 29.346998 6.179C 29.262999 6.038 29.235998 5.841 29.235998 5.671C 29.235998 5.474 29.262999 5.276 29.346998 5.051C 29.432999 4.8250003 29.516998 4.6280003 29.657999 4.459C 29.771 4.29 29.911999 4.178 30.081999 4.093C 30.223 4.008 30.419998 3.952 30.588 3.952C 30.785 3.952 30.955 3.98 31.18 4.036C 31.377 4.093 31.547 4.178 31.688 4.29C 31.828999 4.402 31.942 4.544 32.026 4.685C 32.112 4.8259997 32.139 5.023 32.139 5.2209997C 32.139 5.4179997 32.112 5.6159997 32.026 5.8679996C 31.828 6.319 31.604 6.63 31.293 6.799zM31.547 4.713C 31.463001 4.4589996 31.293001 4.318 31.039001 4.2339997C 30.785002 4.1499996 30.560001 4.1779995 30.334002 4.319C 30.137001 4.4599996 29.969002 4.7419996 29.828001 5.1359997C 29.687 5.5589995 29.658 5.8679996 29.742 6.1219997C 29.828001 6.376 29.996 6.5169997 30.25 6.601C 30.504 6.685 30.729 6.658 30.955 6.516C 31.152 6.375 31.322 6.093 31.463 5.699C 31.603998 5.305 31.631 4.967 31.547 4.713z" stroke="none" fill="#FFFFFF" fill-rule="nonzero" />
	<g>
	</g>
    <path d="M32.984 7.645C 33.041 7.702 33.068 7.757 33.154 7.786C 33.209 7.843 33.265 7.871 33.322 7.8989997C 33.491997 7.983 33.633 8.04 33.773 8.011C 33.913 7.9819994 34.027 7.8989997 34.084 7.785C 34.141 7.7009997 34.141 7.6159997 34.141 7.559C 34.141 7.475 34.112 7.418 34.084 7.333C 34.055 7.25 34 7.193 33.971 7.108C 33.914 7.0239997 33.858 6.967 33.83 6.882C 33.746002 6.77 33.689003 6.685 33.633003 6.572C 33.576004 6.487 33.520004 6.403 33.492004 6.318C 33.463005 6.2339997 33.463005 6.1489997 33.463005 6.0639997C 33.463005 5.9799995 33.492004 5.8949995 33.549004 5.7829995C 33.606003 5.6699996 33.690002 5.5859995 33.774002 5.5289993C 33.858 5.471999 33.971 5.4439993 34.085003 5.4169993C 34.198 5.4169993 34.31 5.4169993 34.450005 5.4439993C 34.593006 5.471999 34.733006 5.5289993 34.874004 5.6139994C 34.931004 5.6409993 34.987003 5.6699996 35.044003 5.7259994C 35.099003 5.753999 35.155003 5.8109994 35.212 5.866999C 35.269 5.9239993 35.325 5.951999 35.382 6.0089993C 35.439 6.0649996 35.466 6.0929995 35.466 6.0929995C 35.493 6.1209993 35.493 6.1499996 35.493 6.1499996C 35.493 6.1499996 35.466 6.1779995 35.466 6.207L35.466 6.207L35.211998 6.573C 35.184998 6.601 35.155 6.601 35.128 6.601L35.128 6.601L34.958 6.516C 34.931 6.516 34.931 6.4599996 34.931 6.4319997L34.931 6.4319997L35.015 6.0929995C 34.986 6.038 34.957 6.01 34.9 5.953C 34.845 5.896 34.789 5.868 34.703003 5.8120003C 34.562004 5.727 34.422005 5.6990004 34.308002 5.727C 34.197002 5.755 34.083004 5.8120003 34.027004 5.953C 34 6.038 33.971 6.094 33.971 6.179C 33.971 6.236 34 6.3199997 34.028 6.376C 34.056 6.432 34.085 6.488 34.141 6.573C 34.197998 6.63 34.225 6.685 34.281998 6.77C 34.338997 6.855 34.394997 6.967 34.478996 7.052C 34.535995 7.136 34.591995 7.249 34.648994 7.362C 34.703995 7.475 34.703995 7.559 34.732994 7.673C 34.732994 7.785 34.703995 7.8989997 34.648994 7.983C 34.562996 8.124 34.478996 8.209 34.365993 8.294C 34.252995 8.349999 34.140995 8.377999 34.027992 8.406C 33.914993 8.406 33.77399 8.406 33.63299 8.349C 33.491993 8.293 33.351994 8.2369995 33.208992 8.152C 33.067993 8.068001 32.956993 8.011001 32.84399 7.8990006C 32.73 7.813 32.59 7.673 32.59 7.673C 32.563 7.645 32.563 7.6159997 32.563 7.6159997C 32.563 7.6159997 32.59 7.588 32.59 7.56L32.59 7.56L32.815 7.165C 32.843998 7.137 32.871998 7.137 32.900997 7.137L32.900997 7.137L33.068996 7.222C 33.097996 7.222 33.097996 7.2790003 33.097996 7.306L33.097996 7.306L32.984 7.645z" stroke="none" fill="#FFFFFF" fill-rule="nonzero" />
	<g>
	</g>
    <path d="M35.973 9.533C 35.944 9.561 35.973 9.589 35.973 9.617L35.973 9.617L36.338 9.898999C 36.367 9.926999 36.395 9.955999 36.424 9.955999L36.424 9.955999L36.621 10.096999C 36.648 10.124999 36.677998 10.124999 36.704998 10.096999L36.704998 10.096999L36.929996 9.9C 36.958996 9.872 36.986996 9.872 37.015995 9.9L37.015995 9.9L37.156994 10.012C 37.183994 10.04 37.183994 10.069 37.156994 10.097L37.156994 10.097L36.845993 10.463C 36.818993 10.491 36.818993 10.52 36.788994 10.52C 36.788994 10.52 36.761993 10.52 36.731995 10.492001L36.731995 10.492001L35.210995 9.280001C 35.183994 9.252001 35.183994 9.223001 35.210995 9.195001L35.210995 9.195001L35.239994 9.139001C 35.266994 9.111001 35.294994 9.111001 35.323994 9.111001L35.323994 9.111001L35.520992 9.2230015C 35.547993 9.2230015 35.57799 9.2230015 35.604992 9.195002L35.604992 9.195002L37.01499 7.3910017C 37.041992 7.363002 37.041992 7.3340015 37.01499 7.3060017L37.01499 7.3060017L36.873993 7.1370015C 36.844994 7.1090016 36.844994 7.0810013 36.873993 7.0530014L36.873993 7.0530014L36.900993 6.9960012C 36.927994 6.9680014 36.957993 6.9680014 36.984993 6.9960012L36.984993 6.9960012L37.802994 7.644001C 37.829994 7.672001 37.829994 7.701001 37.802994 7.728001L37.802994 7.728001L37.773994 7.7850013C 37.746994 7.813001 37.718994 7.813001 37.689995 7.813001L37.689995 7.813001L37.492996 7.701001C 37.465996 7.701001 37.435997 7.701001 37.408997 7.728001L37.408997 7.728001L35.973 9.533z" stroke="none" fill="#FFFFFF" fill-rule="nonzero" />
	<g>
	</g>
    <path d="M39.383 12.746C 39.016 12.718 38.707 12.549001 38.397 12.211C 38.256 12.042001 38.142998 11.872001 38.086 11.703C 38.029 11.533999 38.002 11.365 38.002 11.196C 38.029 11.026 38.059 10.857 38.17 10.688C 38.255997 10.519 38.397 10.349999 38.593998 10.209C 38.790997 10.04 38.961 9.9279995 39.157997 9.842999C 39.354996 9.759 39.523 9.730999 39.692997 9.730999C 39.860996 9.730999 40.031 9.786999 40.200996 9.871999C 40.368996 9.956999 40.509995 10.097999 40.649998 10.237999C 40.793 10.406999 40.904 10.576999 40.961 10.745999C 41.017998 10.915 41.046997 11.084 41.046997 11.252999C 41.017998 11.422999 40.989998 11.591999 40.877 11.761C 40.793 11.929999 40.649998 12.099 40.453 12.24C 40.088 12.605 39.721 12.774 39.383 12.746zM40.65 11.111C 40.707 10.857 40.65 10.632 40.482002 10.434C 40.312004 10.237 40.087 10.124 39.834003 10.153C 39.581005 10.182 39.299004 10.322 38.988003 10.603C 38.65 10.884999 38.480003 11.167 38.424004 11.393C 38.369003 11.646 38.424004 11.872 38.621002 12.068999C 38.791 12.265999 39.016003 12.379999 39.269 12.350999C 39.522 12.321999 39.806 12.181999 40.115 11.899999C 40.398 11.619 40.596 11.337 40.65 11.111z" stroke="none" fill="#FFFFFF" fill-rule="nonzero" />
	<g>
	</g>
    <path d="M41.836 14.55C 41.863 14.523 41.863 14.494 41.836 14.466001L41.836 14.466001L41.524998 13.93L40.509 14.55L40.849 15.114C 40.876 15.142 40.876 15.17 40.904 15.198L40.904 15.198L41.047 15.3949995C 41.074 15.422999 41.102 15.422999 41.131 15.422999L41.131 15.422999L41.412 15.339C 41.440998 15.339 41.468998 15.339 41.496 15.366L41.496 15.366L41.581997 15.536C 41.608997 15.563001 41.581997 15.592 41.552998 15.592L41.552998 15.592L41.130997 15.818C 41.101997 15.818 41.073997 15.846 41.073997 15.846C 41.073997 15.846 41.046997 15.846 41.017 15.818L41.017 15.818L39.947 14.014C 39.918 13.986 39.947 13.957 39.974 13.929L39.974 13.929L40.031 13.901999C 40.058 13.874 40.087997 13.901999 40.114998 13.901999L40.114998 13.901999L40.255997 14.070999C 40.284996 14.098999 40.312996 14.098999 40.341995 14.070999L40.341995 14.070999L42.314995 12.886C 42.341995 12.858999 42.341995 12.83 42.341995 12.802L42.341995 12.802L42.257996 12.6050005C 42.257996 12.577001 42.257996 12.548 42.286995 12.52L42.286995 12.52L42.341995 12.492001C 42.370995 12.464001 42.398994 12.492001 42.427994 12.52L42.427994 12.52L43.441994 14.240001C 43.470993 14.268001 43.470993 14.297001 43.470993 14.324C 43.470993 14.352 43.441994 14.352 43.413994 14.3810005L43.413994 14.3810005L42.989994 14.635C 42.962994 14.663 42.932995 14.635 42.905994 14.607L42.905994 14.607L42.821995 14.438001C 42.792995 14.410001 42.821995 14.3810005 42.821995 14.353001L42.821995 14.353001L43.046993 14.127001C 43.075993 14.1 43.075993 14.071001 43.075993 14.043001L43.075993 14.043001L42.962994 13.930001C 42.962994 13.903001 42.933994 13.8740015 42.905994 13.846002L42.905994 13.846002L42.594994 13.338001L41.692993 13.8740015L42.003994 14.409001C 42.032993 14.437001 42.060993 14.437001 42.089993 14.437001L42.089993 14.437001L42.28699 14.352001C 42.31399 14.352001 42.34199 14.352001 42.37099 14.380001L42.37099 14.380001L42.45499 14.522001C 42.48399 14.549002 42.45499 14.578001 42.42799 14.606001L42.42799 14.606001L41.74999 15.001001C 41.72299 15.029001 41.69299 15.001001 41.66599 14.9730015L41.66599 14.9730015L41.58199 14.832002C 41.55299 14.804002 41.58199 14.775002 41.58199 14.747002L41.58199 14.747002L41.836 14.55z" stroke="none" fill="#FFFFFF" fill-rule="nonzero" />
	<g>
	</g>
    <path d="M7.897 13.338C 7.869 13.338 7.8409996 13.338 7.8129997 13.366L7.8129997 13.366L7.475 13.874001L8.49 14.522L8.856 13.958C 8.884 13.93 8.884 13.902 8.913 13.874001L8.913 13.874001L9.026 13.677001C 9.054 13.649001 9.026 13.620001 9.026 13.592001L9.026 13.592001L8.828 13.395001C 8.8 13.367002 8.8 13.338001 8.828 13.310001L8.828 13.310001L8.941 13.141002C 8.969 13.113002 8.998 13.113002 9.025 13.141002L9.025 13.141002L9.42 13.423001C 9.448 13.451001 9.476 13.451001 9.476 13.480001C 9.476 13.480001 9.476 13.507002 9.476 13.536001L9.476 13.536001L8.32 15.312C 8.292 15.34 8.264 15.34 8.236 15.34L8.236 15.34L8.18 15.312C 8.152 15.284 8.152 15.255 8.152 15.227L8.152 15.227L8.236 15.030001C 8.236 15.002001 8.236 14.973001 8.208 14.945001L8.208 14.945001L6.235 13.649C 6.2070003 13.621 6.178 13.649 6.15 13.649L6.15 13.649L6.0090003 13.818C 5.9810004 13.846 5.952 13.846 5.925 13.818L5.925 13.818L5.868 13.79C 5.84 13.761 5.84 13.732 5.84 13.704L5.84 13.704L6.94 12.014C 6.968 11.986 6.968 11.957 6.9960003 11.957C 7.0240006 11.957 7.0530005 11.957 7.0800004 11.985L7.0800004 11.985L7.5030003 12.238999C 7.531 12.266 7.531 12.294999 7.531 12.322999L7.531 12.322999L7.418 12.463999C 7.3900003 12.491999 7.362 12.491999 7.334 12.491999L7.334 12.491999L7.052 12.38C 7.024 12.38 6.995 12.38 6.967 12.408L6.967 12.408L6.826 12.605C 6.7980003 12.632999 6.769 12.662 6.769 12.688999L6.769 12.688999L6.431 13.197L7.3050003 13.759999L7.643 13.252999C 7.671 13.224999 7.643 13.195999 7.643 13.167999L7.643 13.167999L7.474 13.026999C 7.446 12.999 7.446 12.969999 7.474 12.941999L7.474 12.941999L7.558 12.801C 7.586 12.773 7.6140003 12.773 7.642 12.773L7.642 12.773L8.29 13.196C 8.318 13.224 8.318 13.253 8.318 13.281L8.318 13.281L8.234 13.422C 8.206 13.45 8.178 13.45 8.150001 13.45L8.150001 13.45L7.897 13.338z" stroke="none" fill="#FFFFFF" fill-rule="nonzero" />
	<g>
	</g>
    <path d="M44.598 16.833C 44.598 16.861 44.598 16.89 44.598 16.918L44.598 16.918L43.131 18.946999L44.852 18.355C 44.879 18.355 44.909 18.327 44.879 18.298L44.879 18.298L44.852 18.072C 44.852 18.044 44.879 18.016 44.879 18.016L44.879 18.016L44.936 17.988C 44.965 17.988 44.993 17.988 44.993 18.016L44.993 18.016L45.274 18.862001C 45.274 18.889002 45.274 18.918001 45.246998 18.918001L45.246998 18.918001L45.19 18.946001C 45.163 18.946001 45.133 18.946001 45.106 18.918001L45.106 18.918001L44.993 18.721C 44.966 18.693 44.936 18.693 44.909 18.693L44.909 18.693L42.485 19.539001C 42.456 19.539001 42.428 19.539001 42.428 19.511002L42.428 19.511002L42.342003 19.285002C 42.342003 19.258001 42.342003 19.229002 42.342003 19.201002L42.342003 19.201002L44.063004 16.861002L42.061005 17.538002C 42.034004 17.538002 42.004005 17.566002 42.034004 17.595001L42.034004 17.595001L42.061005 17.821001C 42.061005 17.848001 42.034004 17.877 42.034004 17.877L42.034004 17.877L41.977005 17.905C 41.948006 17.905 41.920006 17.905 41.920006 17.877L41.920006 17.877L41.639008 17.031C 41.639008 17.004 41.639008 16.975 41.666008 16.975L41.666008 16.975L41.723007 16.947C 41.750008 16.947 41.780006 16.947 41.807007 16.975L41.807007 16.975L41.920006 17.172C 41.947006 17.2 41.977005 17.2 42.004005 17.2L42.004005 17.2L44.174004 16.438002C 44.203003 16.438002 44.231003 16.410002 44.203003 16.382002L44.203003 16.382002L44.174004 16.156002C 44.174004 16.128002 44.203003 16.099003 44.203003 16.099003L44.203003 16.099003L44.260002 16.071003C 44.287003 16.071003 44.317 16.071003 44.317 16.099003L44.317 16.099003L44.598 16.833z" stroke="none" fill="#FFFFFF" fill-rule="nonzero" />
	<g>
	</g>
    <path d="M43.076 21.23C 43.047 21.286999 43.047 21.371 43.047 21.456C 43.047 21.540998 43.047 21.597 43.047 21.653C 43.076 21.85 43.131 21.991 43.244 22.076C 43.329998 22.161 43.471 22.217001 43.611 22.188C 43.695 22.188 43.779 22.132 43.836 22.104C 43.892998 22.047 43.948997 21.991 43.976997 21.935C 44.005997 21.85 44.062996 21.793 44.089996 21.709C 44.118996 21.624 44.146996 21.539999 44.173996 21.455C 44.230995 21.343 44.259995 21.229 44.286995 21.117C 44.315994 21.004 44.370995 20.92 44.427994 20.863C 44.484993 20.778002 44.540993 20.722 44.624992 20.694C 44.71099 20.637001 44.79499 20.609001 44.907993 20.609001C 45.018993 20.581001 45.13299 20.609001 45.245995 20.637001C 45.358997 20.665 45.442993 20.749 45.499996 20.806002C 45.583996 20.891 45.640995 21.003002 45.696995 21.117002C 45.753994 21.229002 45.780994 21.398003 45.809994 21.540003C 45.809994 21.596003 45.809994 21.652002 45.836994 21.737003C 45.836994 21.821003 45.836994 21.878004 45.836994 21.963003C 45.836994 22.047003 45.836994 22.104004 45.836994 22.160004C 45.836994 22.216003 45.809994 22.301004 45.809994 22.301004C 45.809994 22.329004 45.780994 22.358004 45.780994 22.358004C 45.780994 22.358004 45.753994 22.358004 45.723995 22.358004L45.723995 22.358004L45.272995 22.358004C 45.245995 22.358004 45.215996 22.330004 45.215996 22.301004L45.215996 22.301004L45.188995 22.132004C 45.188995 22.104004 45.215996 22.075005 45.215996 22.047005L45.215996 22.047005L45.526997 21.906004C 45.555996 21.878004 45.555996 21.821005 45.583996 21.737003C 45.610996 21.652004 45.583996 21.595003 45.583996 21.511003C 45.556995 21.342003 45.499996 21.229004 45.413998 21.144003C 45.329998 21.060003 45.217 21.032003 45.075996 21.032003C 44.991997 21.032003 44.907997 21.060003 44.878998 21.117002C 44.822 21.144003 44.795 21.201002 44.738 21.258003C 44.711 21.315002 44.681 21.370003 44.654 21.455004C 44.625 21.540003 44.597 21.596004 44.597 21.681004C 44.57 21.793003 44.513 21.878004 44.484 21.991003C 44.457 22.104004 44.4 22.217003 44.343002 22.302004C 44.286003 22.386003 44.230003 22.471004 44.146004 22.556004C 44.062004 22.612003 43.949005 22.668003 43.835003 22.668003C 43.667004 22.696003 43.526005 22.668003 43.413002 22.611004C 43.300003 22.555004 43.216003 22.499004 43.13 22.414003C 43.046 22.330004 42.989002 22.217003 42.962 22.076004C 42.905003 21.935003 42.878002 21.794004 42.849003 21.625004C 42.822002 21.484003 42.822002 21.344004 42.822002 21.202003C 42.822002 21.061003 42.849003 20.864004 42.849003 20.864004C 42.849003 20.836004 42.849003 20.807005 42.878002 20.807005C 42.878002 20.807005 42.905003 20.807005 42.933002 20.807005L42.933002 20.807005L43.384003 20.807005C 43.413002 20.807005 43.441 20.835005 43.441 20.864004L43.441 20.864004L43.47 21.033005C 43.47 21.061005 43.441 21.090004 43.441 21.118004L43.441 21.118004L43.076 21.23z" stroke="none" fill="#FFFFFF" fill-rule="nonzero" />
	<g>
	</g>
    <path d="M45.838 25.092C 45.811 25.092 45.781002 25.064999 45.781002 25.035L45.781002 25.035L45.724003 24.81C 45.724003 24.782 45.697002 24.753 45.667004 24.753L45.667004 24.753L43.356003 24.753C 43.329002 24.753 43.299004 24.781 43.299004 24.81L43.299004 24.81L43.272003 25.035C 43.272003 25.064 43.243004 25.092 43.215004 25.092L43.215004 25.092L43.16 25.092C 43.131 25.092 43.103 25.064999 43.103 25.035L43.103 25.035L43.103 23.993C 43.103 23.965 43.13 23.936 43.16 23.936L43.16 23.936L43.217 23.936C 43.244 23.936 43.274 23.964 43.274 23.993L43.274 23.993L43.330997 24.219C 43.330997 24.246 43.357998 24.275 43.385998 24.275L43.385998 24.275L45.698997 24.275C 45.725998 24.275 45.755997 24.247 45.755997 24.219L45.755997 24.219L45.782997 23.993C 45.782997 23.965 45.811996 23.936 45.839996 23.936L45.839996 23.936L45.896996 23.936C 45.923996 23.936 45.953995 23.964 45.953995 23.993L45.953995 23.993L45.953995 25.035C 45.953995 25.064 45.924995 25.092 45.896996 25.092L45.896996 25.092L45.838 25.092z" stroke="none" fill="#FFFFFF" fill-rule="nonzero" />
	<g>
	</g>
    <path d="M43.217 26.867C 43.188 26.924 43.16 26.980001 43.131 27.064001C 43.104 27.149 43.076 27.206001 43.076 27.261002C 43.047 27.458002 43.076 27.600002 43.131 27.741001C 43.188 27.853 43.301 27.938002 43.471 27.966002C 43.555 27.994001 43.639 27.966002 43.725002 27.939001C 43.809002 27.910002 43.866 27.854002 43.922 27.797C 43.977 27.741001 44.033 27.685001 44.09 27.6C 44.147 27.515 44.203 27.458 44.231 27.374C 44.316998 27.261 44.371998 27.177 44.458 27.093C 44.515 27.008001 44.599 26.951 44.655 26.896C 44.711998 26.839 44.795998 26.811 44.879997 26.782999C 44.965996 26.755 45.049995 26.755 45.163 26.782999C 45.274 26.810999 45.387997 26.839998 45.471996 26.924C 45.557995 26.980999 45.612995 27.065 45.668995 27.178C 45.724995 27.290998 45.754993 27.404 45.754993 27.545C 45.754993 27.686 45.754993 27.826 45.725994 27.995C 45.725994 28.052 45.698994 28.107 45.698994 28.192001C 45.669994 28.249 45.669994 28.334002 45.641994 28.389002C 45.612995 28.446001 45.584995 28.531002 45.557995 28.586002C 45.528996 28.643002 45.500996 28.698002 45.500996 28.698002C 45.500996 28.727001 45.471996 28.755001 45.471996 28.755001C 45.471996 28.755001 45.444996 28.755001 45.414997 28.755001L45.414997 28.755001L44.992996 28.643002C 44.965996 28.643002 44.935997 28.615002 44.935997 28.586002L44.935997 28.586002L44.964996 28.417002C 44.964996 28.389002 44.991997 28.360003 45.019997 28.360003L45.019997 28.360003L45.359997 28.333002C 45.386997 28.304003 45.414997 28.248003 45.443996 28.191002C 45.470997 28.135002 45.500996 28.050001 45.500996 27.965002C 45.527996 27.796001 45.500996 27.655003 45.443996 27.543001C 45.386997 27.43 45.274 27.373001 45.163 27.345001C 45.077 27.345001 44.993 27.345001 44.935997 27.373001C 44.878994 27.401001 44.822998 27.43 44.767998 27.486002C 44.711 27.543001 44.682 27.598001 44.624996 27.655003C 44.597996 27.711002 44.540997 27.767002 44.483997 27.852003C 44.427 27.937004 44.343 28.021004 44.287 28.134003C 44.23 28.218002 44.146 28.302002 44.062 28.387003C 43.976 28.472002 43.892002 28.529003 43.779 28.556004C 43.695 28.584003 43.582 28.613003 43.440998 28.584003C 43.273 28.556004 43.16 28.499004 43.075996 28.415003C 42.989998 28.331003 42.906 28.246002 42.878998 28.134003C 42.822 28.021002 42.793 27.907003 42.793 27.739002C 42.793 27.597002 42.793 27.456001 42.822 27.288002C 42.849 27.146002 42.878998 27.006002 42.933 26.864002C 42.989998 26.723001 43.045998 26.554003 43.045998 26.554003C 43.045998 26.526003 43.074997 26.498003 43.074997 26.498003C 43.074997 26.498003 43.101997 26.498003 43.129997 26.525003L43.129997 26.525003L43.553997 26.638004C 43.580997 26.638004 43.610996 26.665005 43.580997 26.695004L43.580997 26.695004L43.553997 26.863003C 43.553997 26.892002 43.526997 26.920002 43.496998 26.920002L43.496998 26.920002L43.217 26.867z" stroke="none" fill="#FFFFFF" fill-rule="nonzero" />
	<g>
	</g>
    <path d="M12.125 41.694C 12.153 41.694 12.182 41.694 12.21 41.666L12.21 41.666L13.394 39.975L11.196 41.215C 11.168 41.215 11.139 41.215 11.111 41.215L11.111 41.215L11.027 41.131C 10.999001 41.102 10.999001 41.074 10.999001 41.046L10.999001 41.046L11.647 38.65L10.294001 40.115C 10.266001 40.144 10.266001 40.172 10.294001 40.2L10.294001 40.2L10.435 40.369C 10.463 40.397 10.463 40.426 10.435 40.454L10.435 40.454L10.378 40.51C 10.35 40.538998 10.3220005 40.538998 10.294001 40.51L10.294001 40.51L9.646001 39.891C 9.618001 39.862 9.618001 39.834 9.646001 39.806L9.646001 39.806L9.702001 39.749C 9.7300005 39.721 9.758 39.721 9.786 39.749L9.786 39.749L9.983 39.861C 10.011 39.89 10.04 39.861 10.066999 39.861L10.066999 39.861L11.589 38.171C 11.617 38.143 11.617 38.114002 11.589 38.086002L11.589 38.086002L11.448 37.917004C 11.42 37.889004 11.42 37.861004 11.448 37.832005L11.448 37.832005L11.504 37.776005C 11.532 37.748005 11.561 37.748005 11.589 37.776005L11.589 37.776005L12.264999 38.339005C 12.292999 38.367004 12.292999 38.396004 12.292999 38.423004L12.292999 38.423004L11.756999 40.509003L13.616999 39.495003C 13.644999 39.495003 13.673999 39.495003 13.700998 39.495003L13.700998 39.495003L14.348998 40.030003C 14.376998 40.057003 14.376998 40.087 14.348998 40.114002L14.348998 40.114002L14.292998 40.171C 14.268 40.2 14.24 40.2 14.211 40.2L14.211 40.2L14.014001 40.088C 13.986001 40.088 13.958001 40.088 13.930001 40.115L13.930001 40.115L12.634001 41.947002C 12.606001 41.976 12.634001 42.004 12.634001 42.032L12.634001 42.032L12.775001 42.201C 12.803 42.229 12.803 42.258 12.775001 42.286L12.775001 42.286L12.747001 42.342C 12.719001 42.371 12.691001 42.371 12.663001 42.342L12.663001 42.342L11.818001 41.723C 11.790001 41.695 11.790001 41.666 11.818001 41.638L11.818001 41.638L11.846001 41.582C 11.874001 41.553 11.903001 41.553 11.93 41.553L11.93 41.553L12.125 41.694z" stroke="none" fill="#FFFFFF" fill-rule="nonzero" />
	<g>
	</g>
    <path d="M17.086 41.525C 17.284 41.637 17.453001 41.75 17.622 41.863003C 17.763 42.004 17.876 42.144 17.96 42.286003C 18.043999 42.455 18.073 42.625004 18.073 42.822002C 18.073 43.019 17.989 43.244003 17.876 43.469C 17.762999 43.694 17.622 43.865 17.480999 44.005C 17.339998 44.146 17.171 44.23 16.973999 44.259003C 16.804998 44.315002 16.606998 44.315002 16.41 44.259003C 16.213 44.230003 15.846 44.062004 15.846 44.062004C 15.818 44.062004 15.79 44.033005 15.762 44.005005L15.762 44.005005L14.776 43.497005C 14.748 43.497005 14.748 43.440006 14.748 43.413006L14.748 43.413006L14.776 43.356007C 14.776 43.328007 14.832 43.328007 14.86 43.328007L14.86 43.328007L15.0859995 43.384007C 15.113999 43.384007 15.141999 43.384007 15.169999 43.357006L15.169999 43.357006L16.213 41.298004C 16.213 41.271004 16.213 41.242004 16.185 41.214005L16.185 41.214005L16.015999 41.073006C 15.987999 41.045006 15.987999 41.016006 15.987999 40.988007L15.987999 40.988007L16.015999 40.932007C 16.015999 40.903008 16.071999 40.903008 16.071999 40.903008L16.071999 40.903008L17.086 41.525zM17.538 42.737C 17.566 42.568 17.566 42.427 17.538 42.314C 17.51 42.173 17.425 42.059998 17.341 41.975998C 17.227999 41.863 17.003 41.721996 17.003 41.721996C 16.975 41.693996 16.947 41.693996 16.919 41.664997L16.919 41.664997L16.666 41.524L15.566 43.694L15.82 43.835C 15.933 43.892 16.046 43.947998 16.157999 43.976997C 16.269999 44.004997 16.383 44.032997 16.467999 44.032997C 16.637 44.032997 16.805998 43.948997 16.946999 43.836C 17.116 43.724 17.256998 43.525997 17.369999 43.273C 17.453 43.075 17.509 42.906 17.538 42.737z" stroke="none" fill="#FFFFFF" fill-rule="nonzero" />
	<g>
	</g>
    <path d="M21.991 43.555C 21.991 43.47 21.991 43.442 21.991 43.385002C 21.991 43.301003 21.963 43.273003 21.877998 43.217003C 21.849998 43.188004 21.821999 43.188004 21.764997 43.160004C 21.708998 43.132004 21.623997 43.103004 21.567997 43.103004C 21.426996 43.075005 21.285997 43.075005 21.172997 43.103004C 21.059996 43.131004 20.946997 43.187004 20.834997 43.272003C 20.722998 43.357002 20.637997 43.469 20.581997 43.611004C 20.497997 43.752003 20.468996 43.921005 20.412996 44.118004C 20.328997 44.541004 20.356997 44.851006 20.497995 45.105003C 20.638996 45.33 20.863995 45.470005 21.202995 45.555004C 21.286995 45.583004 21.399996 45.583004 21.512995 45.583004C 21.596994 45.583004 21.709995 45.555004 21.850994 45.555004C 21.907993 45.555004 21.935993 45.583004 21.935993 45.583004L21.935993 45.583004L21.935993 45.640003C 21.935993 45.640003 21.935993 45.697002 21.878994 45.724003C 21.765993 45.781002 21.625994 45.809002 21.483994 45.809002C 21.314993 45.837 21.145994 45.837 20.947994 45.781002C 20.750994 45.753002 20.581995 45.697002 20.440994 45.612003C 20.271994 45.527004 20.158995 45.415005 20.045994 45.273003C 19.932993 45.132004 19.876993 44.963 19.848993 44.794003C 19.820993 44.597004 19.820993 44.371002 19.848993 44.117004C 19.904993 43.864006 19.961994 43.638004 20.074993 43.469006C 20.186993 43.300007 20.327993 43.159004 20.469994 43.074005C 20.638994 42.989006 20.807993 42.905006 21.005993 42.877007C 21.202993 42.849007 21.400993 42.849007 21.625994 42.905006C 21.766994 42.933006 21.907993 42.962006 22.047995 43.018005C 22.132994 43.045006 22.216995 43.102005 22.301994 43.130005C 22.414995 43.186005 22.385994 43.271004 22.385994 43.271004L22.385994 43.271004L22.272993 43.637005C 22.272993 43.637005 22.244993 43.722004 22.159992 43.722004C 22.103992 43.722004 22.046991 43.694004 22.046991 43.694004C 22.046991 43.694004 21.991 43.668 21.991 43.555z" stroke="none" fill="#FFFFFF" fill-rule="nonzero" />
	<g>
	</g>
    <path d="M26.361 43.668C 26.332 43.582 26.332 43.555 26.304 43.498C 26.275002 43.414 26.247002 43.385002 26.163 43.357002C 26.134 43.357002 26.077 43.329002 26.05 43.329002C 25.993 43.329002 25.908998 43.301003 25.823 43.329002C 25.682 43.329002 25.542 43.357002 25.428 43.441C 25.316 43.498 25.230999 43.582 25.147 43.695004C 25.062 43.808002 25.005999 43.921005 24.977999 44.090004C 24.949999 44.231003 24.921999 44.428005 24.949999 44.625004C 24.977999 45.049004 25.091 45.358006 25.259998 45.556004C 25.457998 45.753002 25.711998 45.838005 26.05 45.810005C 26.163 45.810005 26.247 45.782005 26.361 45.753006C 26.445 45.725006 26.558 45.697006 26.67 45.641006C 26.727 45.613007 26.756 45.668007 26.756 45.668007L26.756 45.668007L26.783 45.725006C 26.783 45.725006 26.810001 45.782005 26.756 45.810005C 26.643 45.866005 26.529001 45.951004 26.416 45.979004C 26.248001 46.036003 26.078001 46.063004 25.881 46.092003C 25.684 46.092003 25.516 46.092003 25.346 46.035004C 25.176 45.978004 25.035 45.922005 24.895 45.809002C 24.754 45.697002 24.669 45.555 24.585001 45.386C 24.501001 45.217003 24.444 44.991 24.444 44.738003C 24.416 44.484 24.444 44.230003 24.528 44.062004C 24.585 43.865005 24.697 43.695004 24.81 43.582005C 24.951 43.441006 25.092 43.357006 25.289 43.272003C 25.486 43.187 25.684 43.160004 25.91 43.160004C 26.051 43.160004 26.191 43.160004 26.332 43.187004C 26.416 43.216003 26.502 43.216003 26.586 43.244003C 26.699001 43.272003 26.699001 43.357002 26.699001 43.357002L26.699001 43.357002L26.670002 43.752003C 26.670002 43.752003 26.670002 43.836002 26.586002 43.836002C 26.529003 43.836002 26.473001 43.836002 26.473001 43.836002C 26.473001 43.836002 26.389 43.752 26.361 43.668z" stroke="none" fill="#FFFFFF" fill-rule="nonzero" />
	<g>
	</g>
    <path d="M30.645 42.766C 30.588001 42.681 30.588001 42.653 30.561 42.596C 30.532001 42.512 30.477001 42.512 30.391 42.484C 30.364 42.484 30.307001 42.484 30.28 42.484C 30.223001 42.484 30.137001 42.484 30.053001 42.512C 29.912 42.539 29.799002 42.596 29.688002 42.681C 29.575 42.766 29.518002 42.85 29.461002 42.991C 29.404003 43.104 29.377003 43.245003 29.377003 43.415C 29.377003 43.583 29.404003 43.753002 29.461002 43.95C 29.574003 44.345 29.742002 44.626 29.969002 44.796C 30.194002 44.937 30.477001 44.965 30.785002 44.88C 30.871002 44.853 30.982002 44.823 31.068 44.768C 31.152 44.711002 31.236 44.656002 31.349 44.599003C 31.406 44.571003 31.433 44.599003 31.433 44.599003L31.433 44.599003L31.462 44.656002C 31.462 44.656002 31.489 44.712 31.462 44.74C 31.376 44.824 31.265 44.91 31.151 44.994003C 31.009998 45.078003 30.839998 45.163002 30.643 45.220005C 30.446 45.276005 30.278 45.305004 30.108 45.276005C 29.938 45.276005 29.77 45.220005 29.629 45.164005C 29.486 45.079006 29.346 44.967007 29.234 44.825005C 29.120998 44.657005 29.007 44.460003 28.951 44.206005C 28.867 43.952003 28.867 43.727005 28.894001 43.501003C 28.923 43.304005 28.980001 43.106003 29.091002 42.966003C 29.204002 42.796005 29.318 42.684002 29.486002 42.571003C 29.656002 42.458004 29.853003 42.374004 30.050001 42.317C 30.191002 42.289 30.331001 42.260002 30.474 42.232002C 30.558 42.232002 30.671001 42.232002 30.755001 42.232002C 30.868002 42.232002 30.896002 42.317 30.896002 42.317L30.896002 42.317L30.953001 42.712C 30.953001 42.712 30.953001 42.796 30.896002 42.825C 30.839003 42.852 30.783 42.852 30.783 42.852C 30.783 42.852 30.674 42.85 30.645 42.766z" stroke="none" fill="#FFFFFF" fill-rule="nonzero" />
	<g>
	</g>
    <path d="M34.197 42.061L32.927 41.498C 32.899998 41.498 32.87 41.47 32.843 41.498L32.843 41.498L32.646 41.554C 32.617 41.554 32.589 41.554 32.562 41.527L32.562 41.527L32.533 41.47C 32.506 41.442 32.533 41.413002 32.562 41.386L32.562 41.386L33.462 40.878002C 33.491 40.850002 33.519 40.878002 33.548 40.905003L33.548 40.905003L33.575 40.962C 33.604 40.99 33.575 41.019 33.575 41.047L33.575 41.047L33.462 41.159C 33.435 41.188 33.435 41.216 33.462 41.216L33.462 41.216L34.364002 41.639L34.477 40.624C 34.477 40.596 34.448 40.567 34.420002 40.596L34.420002 40.596L34.250004 40.653C 34.223003 40.653 34.195004 40.653 34.166004 40.625L34.166004 40.625L34.139004 40.568C 34.110004 40.541 34.139004 40.511 34.166004 40.484L34.166004 40.484L34.898003 40.06C 34.927002 40.033 34.955 40.06 34.984 40.089L34.984 40.089L35.011 40.146C 35.04 40.173 35.011 40.202 35.011 40.23L35.011 40.23L34.843002 40.371C 34.814003 40.399 34.814003 40.427998 34.786003 40.455997L34.786003 40.455997L34.645004 41.725L36.053005 42.372997C 36.082005 42.372997 36.110004 42.399998 36.137005 42.372997L36.137005 42.372997L36.334003 42.315998C 36.363003 42.315998 36.391003 42.315998 36.420002 42.343L36.420002 42.343L36.447002 42.399998C 36.476 42.428997 36.447002 42.456997 36.420002 42.484997L36.420002 42.484997L35.518 43.020996C 35.489002 43.020996 35.461002 43.020996 35.434002 42.991997L35.434002 42.991997L35.405003 42.935997C 35.378002 42.907997 35.405003 42.878998 35.405003 42.850998L35.405003 42.850998L35.518 42.739C 35.545002 42.711 35.545002 42.682 35.518 42.682L35.518 42.682L34.475002 42.175L34.334003 43.359C 34.334003 43.386 34.361004 43.416 34.391003 43.386L34.391003 43.386L34.532 43.33C 34.559002 43.33 34.589 43.33 34.616 43.358L34.616 43.358L34.645 43.415C 34.645 43.442 34.645 43.471 34.616 43.499L34.616 43.499L33.884003 43.922C 33.855003 43.95 33.827003 43.922 33.800003 43.894L33.800003 43.894L33.771004 43.837C 33.744003 43.81 33.771004 43.780003 33.771004 43.753002L33.771004 43.753002L33.941 43.612003C 33.968002 43.583004 33.968002 43.555004 33.998 43.527004L33.998 43.527004L34.197 42.061z" stroke="none" fill="#FFFFFF" fill-rule="nonzero" />
	<g>
	</g>
    <path d="M37.326 38.199C 37.353 38.226 37.353 38.256 37.326 38.283L37.326 38.283L37.183 38.453C 37.156 38.48 37.156 38.509 37.183 38.537L37.183 38.537L38.705997 40.257C 38.732998 40.285 38.762997 40.285 38.789997 40.257L38.789997 40.257L38.986996 40.145C 39.013996 40.116 39.043995 40.145 39.070995 40.145L39.070995 40.145L39.127995 40.201C 39.156994 40.229 39.156994 40.258 39.127995 40.286L39.127995 40.286L38.338993 40.961998C 38.311993 40.989998 38.281994 40.989998 38.254993 40.961998L38.254993 40.961998L38.197994 40.905C 38.168995 40.878 38.168995 40.849 38.197994 40.821L38.197994 40.821L38.338993 40.652C 38.367992 40.624 38.367992 40.595 38.338993 40.567L38.338993 40.567L36.817993 38.848C 36.788994 38.819 36.760994 38.819 36.731995 38.848L36.731995 38.848L36.534996 38.96C 36.507996 38.988 36.479996 38.96 36.450996 38.96L36.450996 38.96L36.393997 38.904C 36.366997 38.875 36.366997 38.847 36.393997 38.818L36.393997 38.818L37.183 38.142002C 37.211998 38.114002 37.239998 38.114002 37.268997 38.142002L37.268997 38.142002L37.326 38.199z" stroke="none" fill="#FFFFFF" fill-rule="nonzero" />
	<g>
	</g>
    <path d="M11.421 11.224C 11.448999 11.224 11.478 11.224 11.504999 11.197L11.504999 11.197L11.9279995 10.745999C 11.955999 10.717999 11.955999 10.688999 11.9279995 10.660999L11.9279995 10.660999L11.872 10.603999C 11.844 10.576999 11.816 10.576999 11.788 10.603999L11.788 10.603999L11.619 10.716999C 11.591001 10.744999 11.563001 10.744999 11.535001 10.744999L11.535001 10.744999L10.266001 10.547999C 10.238001 10.547999 10.238001 10.5199995 10.238001 10.490999C 10.238001 10.490999 10.407001 10.152999 10.379001 9.982999C 10.379001 9.813999 10.295001 9.644999 10.154 9.503999C 10.04 9.392 9.927 9.336 9.814 9.336C 9.701 9.308001 9.588 9.336 9.476 9.363001C 9.363 9.391001 9.279 9.448001 9.165999 9.533001C 9.082 9.617 8.94 9.759 8.94 9.759C 8.913 9.786 8.884 9.814 8.856 9.843L8.856 9.843L8.095 10.632C 8.067 10.66 8.067 10.689 8.095 10.717L8.095 10.717L8.151 10.774C 8.179 10.802 8.207 10.802 8.235 10.774L8.235 10.774L8.403999 10.632C 8.431999 10.604 8.459999 10.604 8.487999 10.632L8.487999 10.632L10.150999 12.211C 10.178999 12.239 10.178999 12.267 10.150999 12.295L10.150999 12.295L10.037999 12.492C 10.009999 12.5199995 10.037999 12.549 10.037999 12.577L10.037999 12.577L10.093999 12.634C 10.121999 12.662 10.150999 12.662 10.177999 12.634L10.177999 12.634L10.882998 11.872C 10.910998 11.844 10.910998 11.816 10.882998 11.788L10.882998 11.788L10.826999 11.731C 10.798999 11.703 10.770999 11.703 10.742999 11.731L10.742999 11.731L10.573999 11.872C 10.546 11.9 10.516999 11.9 10.488999 11.872L10.488999 11.872L9.73 11.14L9.842999 11.027C 9.870999 11 9.898999 11 9.926999 11L9.926999 11L11.421 11.224zM9.645 10.942C 9.617001 10.97 9.617001 10.97 9.617001 10.97L9.617001 10.97L8.8 10.182L8.94 10.04C 8.967999 10.012 8.997 9.983 9.025 9.956C 9.025 9.956 9.108999 9.871 9.165999 9.814C 9.223 9.759 9.307 9.73 9.363 9.73C 9.42 9.73 9.504 9.73 9.559999 9.73C 9.617 9.757999 9.700999 9.813999 9.785999 9.870999C 9.954999 10.039999 10.039999 10.181999 10.011999 10.322C 10.011999 10.462999 9.815 10.717 9.815 10.717C 9.787 10.745 9.757999 10.774 9.757999 10.802L9.757999 10.802L9.645 10.942z" stroke="none" fill="#FFFFFF" fill-rule="nonzero" />
</g>
</svg>