<svg xmlns="http://www.w3.org/2000/svg" xmlns:xlink="http://www.w3.org/1999/xlink" height="800" width="1200" viewBox="-17.0685 -5.47675 147.927 32.8605"><defs><clipPath id="b"><path d="M20 .051h90v21.906H20z"/></clipPath></defs><path id="a" d="M4.773 10.953L0 16.43h7.01l4.758-5.477zM7.01 5.477L11.767.001l4.759 5.477L21.285.001 4.773 0 0 5.477"/><use height="100%" width="100%" xlink:href="#a" fill="#ee3124"/><use height="100%" width="100%" transform="matrix(1 0 0 -1 0 21.907)" xlink:href="#a" fill="#b20838"/><path transform="translate(-.1 -.05)" clip-path="url(#b)" d="M28.9964 27L46.6538-3h-16.026L49.762 29.5082V-3h6.2725v23.881H66.344M69.8465-1v28h6.272V.05l13.637 21.903V-8.2318L110.4897 27h-19.287l17.656-30" fill="none" stroke="#000" stroke-width="2.63"/><path d="M111.42 17.19c-1.31 0-2.37 1.05-2.37 2.36 0 1.3 1.06 2.36 2.37 2.35 1.31 0 2.37-1.05 2.37-2.35s-1.06-2.35-2.37-2.36zm0 .35c1.07 0 1.94.9 1.94 2.01 0 1.11-.87 2.01-1.94 2.01-1.08 0-1.95-.9-1.95-2.01 0-1.11.87-2.01 1.95-2.01zm.14.63c.32 0 .69.06.86.35.14.25.14.57 0 .83-.13.23-.39.34-.65.37l.79 1.22h-.46l-.75-1.19h-.45v1.19h-.43v-2.76zm-.18 1.22c.17 0 .35 0 .51-.07.2-.09.24-.33.18-.53-.1-.16-.22-.23-.37-.25-.1-.01-.16-.02-.25-.02h-.52v.88"/></svg>